<svg width="159" height="46" viewBox="0 0 159 46" fill="none" xmlns="http://www.w3.org/2000/svg">
<g filter="url(#filter0_bii_2251_5164)">
<path d="M153.111 46H5.88889C2.65147 46 0 43.4111 0 40.25V5.75C0 2.58894 2.65147 -2.2931e-06 5.88889 -2.2931e-06H153.111C156.349 -2.2931e-06 159 2.58894 159 5.75V40.25C159 43.4111 156.349 46 153.111 46Z" fill="black"/>
</g>
<path d="M153.111 0.921432C155.838 0.921432 158.056 3.08775 158.056 5.75V40.25C158.056 42.9122 155.838 45.0786 153.111 45.0786H5.88889C3.16233 45.0786 0.943694 42.9122 0.943694 40.25V5.75C0.943694 3.08775 3.16233 0.921432 5.88889 0.921432H153.111ZM153.111 -2.2931e-06H5.88889C2.65147 -2.2931e-06 0 2.58894 0 5.75V40.25C0 43.4111 2.65147 46 5.88889 46H153.111C156.349 46 159 43.4111 159 40.25V5.75C159 2.58894 156.349 -2.2931e-06 153.111 -2.2931e-06Z" fill="url(#paint0_linear_2251_5164)"/>
<path d="M35.4884 22.7524C35.4542 19.046 38.5965 17.2428 38.7402 17.1588C36.9606 14.6254 34.2022 14.2792 33.2329 14.2516C30.9162 14.0136 28.669 15.6052 27.4889 15.6052C26.2852 15.6052 24.4679 14.2746 22.5093 14.3137C19.9888 14.3517 17.6309 15.7765 16.3377 17.9891C13.6689 22.5006 15.6593 29.1303 18.2163 32.777C19.4953 34.5629 20.9899 36.557 22.9462 36.4869C24.8601 36.4098 25.575 35.2955 27.8846 35.2955C30.1731 35.2955 30.8444 36.4869 32.8396 36.442C34.8936 36.4098 36.1868 34.648 37.4211 32.846C38.8992 30.799 39.4928 28.783 39.5164 28.6795C39.4681 28.6634 35.5273 27.1949 35.4884 22.7524Z" fill="white"/>
<path d="M31.7195 11.8527C32.7489 10.5958 33.4532 8.88574 33.2577 7.15039C31.7678 7.21479 29.9045 8.15664 28.8316 9.38599C27.8823 10.4693 27.0343 12.2449 27.2534 13.9147C28.927 14.0366 30.6454 13.0901 31.7195 11.8527Z" fill="white"/>
<path d="M57.7669 11.5105C57.7669 12.864 57.3511 13.8829 56.5208 14.5672C55.7517 15.1985 54.6587 15.5148 53.243 15.5148C52.5411 15.5148 51.9404 15.4849 51.4375 15.4251V8.02945C52.0935 7.92595 52.8002 7.87305 53.5634 7.87305C54.9119 7.87305 55.9284 8.1594 56.6138 8.7321C57.3818 9.37955 57.7669 10.3053 57.7669 11.5105ZM56.4654 11.5438C56.4654 10.6664 56.2275 9.99365 55.7517 9.52445C55.2759 9.0564 54.581 8.8218 53.6659 8.8218C53.2772 8.8218 52.9462 8.8471 52.6718 8.9V14.5223C52.8237 14.5453 53.1017 14.5557 53.5057 14.5557C54.4503 14.5557 55.1793 14.2992 55.6928 13.7863C56.2063 13.2734 56.4654 12.5259 56.4654 11.5438Z" fill="white"/>
<path d="M64.6683 12.6921C64.6683 13.5259 64.4245 14.209 63.9369 14.7449C63.4257 15.2957 62.7485 15.5706 61.9028 15.5706C61.0878 15.5706 60.4389 15.3072 59.9548 14.7782C59.4719 14.2504 59.2305 13.5845 59.2305 12.7818C59.2305 11.9423 59.479 11.2535 59.9784 10.7187C60.4777 10.184 61.1491 9.91602 61.9947 9.91602C62.8097 9.91602 63.4646 10.1794 63.9604 10.7072C64.4315 11.2201 64.6683 11.8825 64.6683 12.6921ZM63.388 12.7312C63.388 12.231 63.2773 11.802 63.0571 11.4444C62.798 11.012 62.4293 10.7958 61.95 10.7958C61.4541 10.7958 61.0772 11.012 60.8181 11.4444C60.5967 11.802 60.4872 12.2379 60.4872 12.7531C60.4872 13.2533 60.5979 13.6823 60.8181 14.0399C61.0855 14.4723 61.4576 14.6885 61.9382 14.6885C62.4093 14.6885 62.7791 14.4689 63.0453 14.0284C63.2738 13.6639 63.388 13.2315 63.388 12.7312Z" fill="white"/>
<path d="M73.9192 10.0273L72.182 15.4484H71.0513L70.3317 13.0944C70.1492 12.5067 70.0008 11.9225 69.8853 11.3429H69.863C69.7558 11.9386 69.6074 12.5217 69.4166 13.0944L68.6522 15.4484H67.5086L65.875 10.0273H67.1435L67.7712 12.6045C67.9232 13.214 68.048 13.7947 68.1481 14.3444H68.1705C68.2624 13.8913 68.4143 13.314 68.6286 12.616L69.4166 10.0285H70.4224L71.1774 12.5608C71.3599 13.1783 71.5083 13.7729 71.6225 14.3456H71.6567C71.7403 13.7878 71.8664 13.1933 72.0336 12.5608L72.7073 10.0285H73.9192V10.0273Z" fill="white"/>
<path d="M80.3197 15.4471H79.0854V12.3421C79.0854 11.3853 78.7132 10.9069 77.9665 10.9069C77.6002 10.9069 77.3046 11.038 77.0749 11.3013C76.8476 11.5647 76.7322 11.8752 76.7322 12.2305V15.4459H75.4979V11.575C75.4979 11.0989 75.4826 10.5826 75.4531 10.0237H76.5379L76.5956 10.8712H76.6297C76.7734 10.6079 76.9878 10.3905 77.2693 10.2169C77.6037 10.0145 77.9783 9.91211 78.3881 9.91211C78.9064 9.91211 79.3374 10.0754 79.6802 10.4032C80.1065 10.8045 80.3197 11.4037 80.3197 12.1995V15.4471Z" fill="white"/>
<path d="M83.7214 15.4476H82.4883V7.53906H83.7214V15.4476Z" fill="white"/>
<path d="M90.9925 12.6921C90.9925 13.5259 90.7487 14.209 90.2611 14.7449C89.7499 15.2957 89.0715 15.5706 88.2271 15.5706C87.4109 15.5706 86.7619 15.3072 86.279 14.7782C85.7961 14.2504 85.5547 13.5845 85.5547 12.7818C85.5547 11.9423 85.8032 11.2535 86.3026 10.7187C86.802 10.184 87.4733 9.91602 88.3178 9.91602C89.134 9.91602 89.7876 10.1794 90.2846 10.7072C90.7558 11.2201 90.9925 11.8825 90.9925 12.6921ZM89.7111 12.7312C89.7111 12.231 89.6004 11.802 89.3801 11.4444C89.1222 11.012 88.7524 10.7958 88.2742 10.7958C87.7772 10.7958 87.4003 11.012 87.1423 11.4444C86.9209 11.802 86.8114 12.2379 86.8114 12.7531C86.8114 13.2533 86.9221 13.6823 87.1423 14.0399C87.4097 14.4723 87.7819 14.6885 88.2624 14.6885C88.7335 14.6885 89.1022 14.4689 89.3683 14.0284C89.598 13.6639 89.7111 13.2315 89.7111 12.7312Z" fill="white"/>
<path d="M96.9642 15.4475H95.856L95.7641 14.8231H95.7299C95.3507 15.321 94.8101 15.5706 94.1081 15.5706C93.584 15.5706 93.16 15.4061 92.8409 15.0795C92.5511 14.7828 92.4062 14.4137 92.4062 13.9755C92.4062 13.3131 92.6889 12.8083 93.2578 12.4587C93.8255 12.1091 94.624 11.9377 95.6522 11.9458V11.8446C95.6522 11.1304 95.2682 10.7739 94.4992 10.7739C93.9515 10.7739 93.4686 10.9085 93.0517 11.1753L92.8008 10.3841C93.3167 10.0724 93.9539 9.91602 94.7053 9.91602C96.1563 9.91602 96.8842 10.6635 96.8842 12.1585V14.1549C96.8842 14.6966 96.9112 15.1278 96.9642 15.4475ZM95.6828 13.5845V12.7485C94.3213 12.7255 93.6406 13.09 93.6406 13.841C93.6406 14.1239 93.7183 14.3355 93.8773 14.4769C94.0363 14.6184 94.2389 14.6885 94.4803 14.6885C94.7512 14.6885 95.0044 14.6046 95.2353 14.4378C95.4673 14.2699 95.6098 14.0572 95.6628 13.7961C95.6758 13.7375 95.6828 13.6662 95.6828 13.5845Z" fill="white"/>
<path d="M103.976 15.4476H102.88L102.823 14.5771H102.789C102.439 15.2395 101.843 15.5707 101.005 15.5707C100.336 15.5707 99.7794 15.3142 99.3377 14.8013C98.896 14.2884 98.6758 13.6226 98.6758 12.8049C98.6758 11.9275 98.9149 11.2168 99.3954 10.674C99.8606 10.168 100.431 9.91496 101.109 9.91496C101.855 9.91496 102.376 10.1599 102.673 10.651H102.697V7.53906H103.932V13.9871C103.932 14.515 103.946 15.0014 103.976 15.4476ZM102.697 13.1614V12.2575C102.697 12.1011 102.685 11.9746 102.663 11.878C102.593 11.5882 102.443 11.3444 102.216 11.1478C101.987 10.9511 101.71 10.8522 101.391 10.8522C100.93 10.8522 100.57 11.0305 100.305 11.3881C100.042 11.7458 99.9089 12.2023 99.9089 12.7601C99.9089 13.296 100.035 13.7307 100.288 14.0653C100.556 14.4218 100.916 14.6001 101.367 14.6001C101.772 14.6001 102.096 14.4517 102.342 14.1539C102.58 13.879 102.697 13.5478 102.697 13.1614Z" fill="white"/>
<path d="M114.532 12.6921C114.532 13.5259 114.288 14.209 113.8 14.7449C113.289 15.2957 112.613 15.5706 111.766 15.5706C110.952 15.5706 110.303 15.3072 109.818 14.7782C109.335 14.2504 109.094 13.5845 109.094 12.7818C109.094 11.9423 109.342 11.2535 109.842 10.7187C110.341 10.184 111.012 9.91602 111.859 9.91602C112.673 9.91602 113.329 10.1794 113.824 10.7072C114.295 11.2201 114.532 11.8825 114.532 12.6921ZM113.252 12.7312C113.252 12.231 113.142 11.802 112.922 11.4444C112.661 11.012 112.294 10.7958 111.813 10.7958C111.319 10.7958 110.942 11.012 110.681 11.4444C110.46 11.802 110.35 12.2379 110.35 12.7531C110.35 13.2533 110.461 13.6823 110.681 14.0399C110.949 14.4723 111.321 14.6885 111.801 14.6885C112.273 14.6885 112.644 14.4689 112.91 14.0284C113.137 13.6639 113.252 13.2315 113.252 12.7312Z" fill="white"/>
<path d="M121.17 15.4471H119.937V12.3421C119.937 11.3853 119.565 10.9069 118.817 10.9069C118.451 10.9069 118.155 11.038 117.926 11.3013C117.698 11.5647 117.584 11.8752 117.584 12.2305V15.4459H116.348V11.575C116.348 11.0989 116.334 10.5826 116.305 10.0237H117.388L117.446 10.8712H117.48C117.625 10.6079 117.839 10.3905 118.12 10.2169C118.455 10.0145 118.829 9.91211 119.24 9.91211C119.757 9.91211 120.188 10.0754 120.531 10.4032C120.958 10.8045 121.17 11.4037 121.17 12.1995V15.4471Z" fill="white"/>
<path d="M129.479 10.9286H128.12V13.5621C128.12 14.2314 128.361 14.5661 128.84 14.5661C129.061 14.5661 129.245 14.5477 129.39 14.5097L129.421 15.424C129.178 15.5137 128.857 15.5585 128.463 15.5585C127.975 15.5585 127.596 15.4136 127.321 15.1238C127.046 14.834 126.909 14.3464 126.909 13.6622V10.9286H126.098V10.0259H126.909V9.03228L128.119 8.67578V10.0247H129.478V10.9286H129.479Z" fill="white"/>
<path d="M136.009 15.4476H134.774V12.3656C134.774 11.3939 134.402 10.9074 133.656 10.9074C133.084 10.9074 132.693 11.1892 132.478 11.7527C132.442 11.8711 132.421 12.016 132.421 12.1862V15.4465H131.188V7.53906H132.421V10.8062H132.444C132.833 10.2117 133.39 9.91496 134.112 9.91496C134.623 9.91496 135.046 10.0783 135.382 10.406C135.8 10.8143 136.009 11.4215 136.009 12.2242V15.4476Z" fill="white"/>
<path d="M142.752 12.4811C142.752 12.6973 142.736 12.879 142.707 13.0273H139.005C139.021 13.5632 139.198 13.9715 139.541 14.2544C139.854 14.5074 140.258 14.6339 140.753 14.6339C141.3 14.6339 141.8 14.5488 142.25 14.3774L142.443 15.2146C141.916 15.4377 141.297 15.5493 140.579 15.5493C139.72 15.5493 139.042 15.3021 138.553 14.8075C138.06 14.313 137.816 13.6495 137.816 12.8169C137.816 11.9993 138.044 11.3184 138.502 10.7756C138.98 10.196 139.627 9.90625 140.443 9.90625C141.241 9.90625 141.848 10.196 142.258 10.7756C142.589 11.2356 142.752 11.8049 142.752 12.4811ZM141.575 12.1694C141.584 11.8118 141.503 11.5036 141.336 11.2437C141.121 10.9091 140.795 10.7411 140.353 10.7411C139.951 10.7411 139.622 10.9044 139.371 11.2322C139.166 11.4932 139.045 11.8049 139.005 12.1694H141.575Z" fill="white"/>
<path d="M63.1815 36.2297H60.5068L59.0417 31.7344H53.949L52.5533 36.2297H49.9492L54.9948 20.9255H58.1112L63.1815 36.2297ZM58.6 29.8484L57.275 25.8521C57.1348 25.4439 56.8722 24.4825 56.4847 22.9691H56.4376C56.2833 23.62 56.0348 24.5814 55.6932 25.8521L54.3918 29.8484H58.6Z" fill="white"/>
<path d="M76.1573 30.5773C76.1573 32.4541 75.6379 33.9376 74.5991 35.0267C73.6686 35.9961 72.5132 36.4803 71.1341 36.4803C69.6453 36.4803 68.5759 35.9581 67.9246 34.9139H67.8775V40.7272H65.3665V28.8281C65.3665 27.6482 65.3347 26.4373 65.2734 25.1953H67.4818L67.6219 26.9445H67.669C68.5064 25.6266 69.7773 24.9688 71.4827 24.9688C72.8159 24.9688 73.9289 25.4828 74.8193 26.512C75.7121 27.5424 76.1573 28.8971 76.1573 30.5773ZM73.5991 30.667C73.5991 29.5929 73.3518 28.7074 72.8548 28.0105C72.3118 27.2837 71.5828 26.9203 70.6688 26.9203C70.0493 26.9203 69.4863 27.1227 68.9834 27.5217C68.4793 27.9242 68.1496 28.4498 67.9953 29.1007C67.9175 29.4043 67.8787 29.6527 67.8787 29.8482V31.6882C67.8787 32.4909 68.1307 33.1683 68.6348 33.7214C69.1389 34.2746 69.7937 34.5505 70.5993 34.5505C71.5451 34.5505 72.2812 34.194 72.8077 33.4833C73.3353 32.7715 73.5991 31.8331 73.5991 30.667Z" fill="white"/>
<path d="M89.1561 30.5773C89.1561 32.4541 88.6367 33.9376 87.5967 35.0267C86.6675 35.9961 85.5121 36.4803 84.1329 36.4803C82.6442 36.4803 81.5747 35.9581 80.9246 34.9139H80.8775V40.7272H78.3665V28.8281C78.3665 27.6482 78.3347 26.4373 78.2734 25.1953H80.4818L80.6219 26.9445H80.669C81.5053 25.6266 82.7761 24.9688 84.4827 24.9688C85.8148 24.9688 86.9278 25.4828 87.8205 26.512C88.7097 27.5424 89.1561 28.8971 89.1561 30.5773ZM86.598 30.667C86.598 29.5929 86.3495 28.7074 85.8524 28.0105C85.3095 27.2837 84.5828 26.9203 83.6677 26.9203C83.047 26.9203 82.4852 27.1227 81.9811 27.5217C81.477 27.9242 81.1484 28.4498 80.9941 29.1007C80.9175 29.4043 80.8775 29.6527 80.8775 29.8482V31.6882C80.8775 32.4909 81.1295 33.1683 81.6313 33.7214C82.1354 34.2734 82.7902 34.5505 83.5982 34.5505C84.5439 34.5505 85.28 34.194 85.8065 33.4833C86.3342 32.7715 86.598 31.8331 86.598 30.667Z" fill="white"/>
<path d="M103.689 31.9378C103.689 33.2396 103.226 34.2988 102.296 35.1164C101.275 36.01 99.8537 36.4562 98.027 36.4562C96.3404 36.4562 94.9883 36.1388 93.9648 35.5028L94.5467 33.4593C95.6491 34.1102 96.8586 34.4368 98.1766 34.4368C99.1223 34.4368 99.8584 34.2275 100.387 33.8112C100.914 33.3949 101.176 32.836 101.176 32.1391C101.176 31.5181 100.96 30.9948 100.525 30.5705C100.093 30.1461 99.3708 29.7517 98.3627 29.3871C95.6184 28.3878 94.2475 26.9238 94.2475 24.9987C94.2475 23.7406 94.728 22.7091 95.6903 21.9064C96.649 21.1025 97.9281 20.7012 99.5275 20.7012C100.954 20.7012 102.139 20.9438 103.084 21.428L102.457 23.4267C101.573 22.9575 100.575 22.7229 99.4568 22.7229C98.5735 22.7229 97.8833 22.9356 97.3886 23.3588C96.9705 23.7372 96.7609 24.1983 96.7609 24.7446C96.7609 25.3495 97 25.8497 97.4805 26.243C97.8986 26.6064 98.6583 26.9997 99.7607 27.4241C101.109 27.9542 102.1 28.5741 102.737 29.2848C103.372 29.9932 103.689 30.8798 103.689 31.9378Z" fill="white"/>
<path d="M111.992 27.035H109.225V32.3928C109.225 33.7556 109.712 34.4364 110.69 34.4364C111.138 34.4364 111.511 34.3984 111.805 34.3225L111.875 36.1844C111.38 36.3649 110.729 36.4558 109.922 36.4558C108.93 36.4558 108.155 36.1602 107.596 35.5703C107.039 34.9792 106.758 33.9879 106.758 32.5952V27.0327H105.109V25.1927H106.758V23.1721L109.225 22.4453V25.1927H111.992V27.035Z" fill="white"/>
<path d="M124.48 30.621C124.48 32.3173 123.983 33.7099 122.991 34.799C121.951 35.9202 120.571 36.4791 118.85 36.4791C117.192 36.4791 115.872 35.942 114.887 34.8679C113.902 33.7938 113.41 32.438 113.41 30.8038C113.41 29.0938 113.917 27.6931 114.933 26.6041C115.947 25.5139 117.316 24.9688 119.036 24.9688C120.695 24.9688 122.029 25.5058 123.036 26.5811C124 27.6241 124.48 28.9708 124.48 30.621ZM121.875 30.7003C121.875 29.6826 121.652 28.8098 121.201 28.0818C120.675 27.2009 119.922 26.7616 118.947 26.7616C117.938 26.7616 117.171 27.2021 116.644 28.0818C116.193 28.8109 115.971 29.6976 115.971 30.7464C115.971 31.7641 116.193 32.6369 116.644 33.3637C117.187 34.2446 117.946 34.6839 118.925 34.6839C119.883 34.6839 120.636 34.2355 121.179 33.3408C121.642 32.599 121.875 31.7169 121.875 30.7003Z" fill="white"/>
<path d="M132.64 27.3516C132.392 27.3067 132.127 27.2837 131.849 27.2837C130.966 27.2837 130.283 27.6091 129.802 28.2612C129.384 28.8362 129.174 29.563 129.174 30.4404V36.2307H126.664L126.688 28.6706C126.688 27.3987 126.656 26.2407 126.594 25.1964H128.781L128.873 27.3079H128.942C129.207 26.5822 129.625 25.998 130.198 25.5598C130.757 25.1654 131.361 24.9688 132.013 24.9688C132.245 24.9688 132.454 24.9848 132.64 25.0136V27.3516Z" fill="white"/>
<path d="M143.872 30.1901C143.872 30.6294 143.843 30.9997 143.78 31.3022H136.247C136.277 32.3924 136.641 33.2261 137.34 33.8011C137.975 34.3152 138.796 34.5728 139.804 34.5728C140.92 34.5728 141.937 34.3991 142.852 34.0507L143.246 35.7527C142.176 36.2081 140.914 36.4346 139.457 36.4346C137.704 36.4346 136.329 35.9309 135.327 34.9247C134.329 33.9184 133.828 32.5672 133.828 30.8721C133.828 29.208 134.293 27.8223 135.225 26.7171C136.2 25.5372 137.518 24.9473 139.176 24.9473C140.805 24.9473 142.038 25.5372 142.876 26.7171C143.539 27.6544 143.872 28.8136 143.872 30.1901ZM141.478 29.5542C141.494 28.8274 141.331 28.1995 140.99 27.6693C140.556 26.9874 139.888 26.647 138.989 26.647C138.168 26.647 137.5 26.9793 136.99 27.6463C136.572 28.1765 136.324 28.8124 136.247 29.553H141.478V29.5542Z" fill="white"/>
<defs>
<filter id="filter0_bii_2251_5164" x="-14.1538" y="-14.1538" width="187.308" height="74.3077" filterUnits="userSpaceOnUse" color-interpolation-filters="sRGB">
<feFlood flood-opacity="0" result="BackgroundImageFix"/>
<feGaussianBlur in="BackgroundImage" stdDeviation="7.07692"/>
<feComposite in2="SourceAlpha" operator="in" result="effect1_backgroundBlur_2251_5164"/>
<feBlend mode="normal" in="SourceGraphic" in2="effect1_backgroundBlur_2251_5164" result="shape"/>
<feColorMatrix in="SourceAlpha" type="matrix" values="0 0 0 0 0 0 0 0 0 0 0 0 0 0 0 0 0 0 127 0" result="hardAlpha"/>
<feOffset dx="10.6154" dy="7.96154"/>
<feGaussianBlur stdDeviation="8.84615"/>
<feComposite in2="hardAlpha" operator="arithmetic" k2="-1" k3="1"/>
<feColorMatrix type="matrix" values="0 0 0 0 0.992951 0 0 0 0 0.993775 0 0 0 0 0.998715 0 0 0 0.16 0"/>
<feBlend mode="normal" in2="shape" result="effect2_innerShadow_2251_5164"/>
<feColorMatrix in="SourceAlpha" type="matrix" values="0 0 0 0 0 0 0 0 0 0 0 0 0 0 0 0 0 0 127 0" result="hardAlpha"/>
<feOffset dx="-4.42308" dy="-4.42308"/>
<feGaussianBlur stdDeviation="10.6154"/>
<feComposite in2="hardAlpha" operator="arithmetic" k2="-1" k3="1"/>
<feColorMatrix type="matrix" values="0 0 0 0 0.0627451 0 0 0 0 0.101961 0 0 0 0 0.337255 0 0 0 1 0"/>
<feBlend mode="normal" in2="effect2_innerShadow_2251_5164" result="effect3_innerShadow_2251_5164"/>
</filter>
<linearGradient id="paint0_linear_2251_5164" x1="159" y1="54.4038" x2="3.9186" y2="-4.27402" gradientUnits="userSpaceOnUse">
<stop stop-color="#8795E9" stop-opacity="0.24"/>
<stop offset="1" stop-color="#106EE8"/>
</linearGradient>
</defs>
</svg>
