<svg width="1006" height="1207" viewBox="0 0 1006 1207" fill="none" xmlns="http://www.w3.org/2000/svg">
<g filter="url(#filter0_f_1171_4948)">
<path d="M136.965 162C128.427 162 120.798 165.472 120.543 174.007C119.742 200.819 132.474 266.442 137.531 318.395C139.849 342.207 154.187 363.903 174.754 376.125C236.181 412.63 302.802 473.649 315.5 481C334.5 492 110 621 127.5 630C141.245 637.069 265.42 763.821 326.309 799.715C345.307 810.915 372.447 804.026 394.487 803.276L562.079 797.578C584.12 796.828 602.46 782.926 602.674 760.874C603.368 689.529 581.184 549.54 597.5 532C617.5 510.5 590 366 576 358C562 350 437.5 323 437.5 313.5C437.5 307.568 417.803 251.196 400.519 201.297C392.386 177.82 370.288 162 345.442 162H136.965Z" fill="url(#paint0_linear_1171_4948)" fill-opacity="0.4"/>
<path d="M136.965 162C128.427 162 120.798 165.472 120.543 174.007C119.742 200.819 132.474 266.442 137.531 318.395C139.849 342.207 154.187 363.903 174.754 376.125C236.181 412.63 302.802 473.649 315.5 481C334.5 492 110 621 127.5 630C141.245 637.069 265.42 763.821 326.309 799.715C345.307 810.915 372.447 804.026 394.487 803.276L562.079 797.578C584.12 796.828 602.46 782.926 602.674 760.874C603.368 689.529 581.184 549.54 597.5 532C617.5 510.5 590 366 576 358C562 350 437.5 323 437.5 313.5C437.5 307.568 417.803 251.196 400.519 201.297C392.386 177.82 370.288 162 345.442 162H136.965Z" stroke="black"/>
</g>
<defs>
<filter id="filter0_f_1171_4948" x="-279.993" y="-238.5" width="1285.04" height="1445.06" filterUnits="userSpaceOnUse" color-interpolation-filters="sRGB">
<feFlood flood-opacity="0" result="BackgroundImageFix"/>
<feBlend mode="normal" in="SourceGraphic" in2="BackgroundImageFix" result="shape"/>
<feGaussianBlur stdDeviation="200" result="effect1_foregroundBlur_1171_4948"/>
</filter>
<linearGradient id="paint0_linear_1171_4948" x1="103" y1="143" x2="745" y2="888" gradientUnits="userSpaceOnUse">
<stop stop-color="#007C9E" stop-opacity="0"/>
<stop offset="0.0001" stop-color="#6CCDEE"/>
<stop offset="1" stop-color="#007C9E"/>
</linearGradient>
</defs>
</svg>
