<svg width="11" height="15" viewBox="0 0 11 15" fill="none" xmlns="http://www.w3.org/2000/svg">
<path d="M1.4641 12.6944H10.0359C10.2169 12.6945 10.3911 12.7694 10.5233 12.9039C10.6556 13.0384 10.736 13.2226 10.7483 13.4192C10.7607 13.6158 10.704 13.8102 10.5898 13.9631C10.4756 14.1159 10.3123 14.2159 10.133 14.2427L10.0359 14.25H1.4641C1.28312 14.2499 1.1089 14.1751 0.976657 14.0405C0.844413 13.906 0.763998 13.7218 0.751662 13.5252C0.739327 13.3286 0.795989 13.1343 0.910201 12.9814C1.02441 12.8285 1.18766 12.7286 1.36695 12.7017L1.4641 12.6944H10.0359H1.4641ZM5.65285 0.257259L5.75 0.25C5.92262 0.250008 6.08939 0.318074 6.21948 0.44161C6.34957 0.565147 6.43417 0.735796 6.45765 0.922L6.46432 1.02778V9.00052L8.61203 6.66304C8.73315 6.5312 8.89374 6.45113 9.06455 6.43743C9.23535 6.42372 9.40498 6.47729 9.54255 6.58837L9.62255 6.66304C9.74363 6.79492 9.81717 6.96978 9.82975 7.15575C9.84234 7.34173 9.79314 7.52644 9.69112 7.67622L9.62255 7.76333L6.25478 11.4293C6.13384 11.561 5.97349 11.6411 5.80291 11.655C5.63232 11.6689 5.46282 11.6156 5.32522 11.505L5.24522 11.4293L1.87745 7.76333C1.74964 7.62455 1.67483 7.43823 1.66804 7.24183C1.66126 7.04544 1.72301 6.85352 1.84089 6.70468C1.95876 6.55584 2.12402 6.46111 2.30343 6.43953C2.48284 6.41795 2.6631 6.47113 2.80797 6.58837L2.88797 6.66304L5.03568 9.00259V1.02778C5.03569 0.839828 5.0982 0.658238 5.21166 0.51659C5.32512 0.374943 5.48184 0.28282 5.65285 0.257259L5.75 0.25L5.65285 0.257259Z" fill="white"/>
</svg>
