<svg width="159" height="46" viewBox="0 0 159 46" fill="none" xmlns="http://www.w3.org/2000/svg">
<g filter="url(#filter0_bii_2251_5192)">
<path d="M153.111 46H5.88889C2.65147 46 0 43.4148 0 40.2583V5.80833C0 2.65185 2.65147 0.0666652 5.88889 0.0666652H153.111C156.349 0.0666652 159 2.65185 159 5.80833V40.2583C159 43.4148 156.349 46 153.111 46Z" fill="black"/>
</g>
<path d="M153.111 0.986768C155.838 0.986768 158.056 3.14994 158.056 5.80833V40.2583C158.056 42.9167 155.838 45.0799 153.111 45.0799H5.88889C3.16233 45.0799 0.943694 42.9167 0.943694 40.2583V5.80833C0.943694 3.14994 3.16233 0.986768 5.88889 0.986768H153.111ZM153.111 0.0666652H5.88889C2.65147 0.0666652 0 2.65185 0 5.80833V40.2583C0 43.4148 2.65147 46 5.88889 46H153.111C156.349 46 159 43.4148 159 40.2583V5.80833C159 2.65185 156.349 0.0666652 153.111 0.0666652Z" fill="url(#paint0_linear_2251_5192)"/>
<path d="M12.2884 8.72514C11.9424 9.07825 11.7422 9.62802 11.7422 10.34V35.7354C11.7422 36.4473 11.9424 36.9971 12.2884 37.3502L12.3738 37.4277L26.9694 23.2028V22.8669L12.3738 8.64189L12.2884 8.72514Z" fill="url(#paint1_linear_2251_5192)"/>
<path d="M31.8325 27.9453L26.9727 23.2013V22.8654L31.8384 18.1213L31.9473 18.183L37.7096 21.3797C39.354 22.2869 39.354 23.7797 37.7096 24.6927L31.9473 27.8836L31.8325 27.9453V27.9453Z" fill="url(#paint2_linear_2251_5192)"/>
<path d="M31.9447 27.8844L26.9701 23.0342L12.2891 37.3496C12.8353 37.9094 13.726 37.9769 14.7388 37.417L31.9447 27.8844" fill="url(#paint3_linear_2251_5192)"/>
<path d="M31.9447 18.1849L14.7388 8.65228C13.726 8.09821 12.8353 8.16568 12.2891 8.72549L26.9701 23.0352L31.9447 18.1849Z" fill="url(#paint4_linear_2251_5192)"/>
<path d="M55.8463 11.8291C55.8463 12.788 55.5519 13.556 54.9718 14.1287C54.3049 14.8076 53.4363 15.1493 52.3719 15.1493C51.3546 15.1493 50.486 14.8019 49.7734 14.1172C49.0594 13.4225 48.7031 12.5698 48.7031 11.5492C48.7031 10.5287 49.0594 9.67603 49.7734 8.98703C50.486 8.29659 51.3546 7.94922 52.3719 7.94922C52.8783 7.94922 53.3612 8.05113 53.822 8.24061C54.2814 8.43152 54.6553 8.68989 54.9262 9.00856L54.3108 9.6143C53.8382 9.07028 53.1949 8.80186 52.3719 8.80186C51.6299 8.80186 50.9865 9.05449 50.4403 9.56406C49.9 10.0751 49.6291 10.7368 49.6291 11.5492C49.6291 12.3617 49.9 13.0292 50.4403 13.5402C50.9865 14.044 51.6299 14.3024 52.3719 14.3024C53.1595 14.3024 53.822 14.044 54.3447 13.5344C54.6892 13.1971 54.885 12.732 54.9365 12.1378H52.3719V11.3081H55.7933C55.8346 11.4875 55.8463 11.6612 55.8463 11.8291Z" fill="white" stroke="white" stroke-width="0.141538" stroke-miterlimit="10"/>
<path d="M61.276 8.95288H58.0622V11.1347H60.9595V11.9644H58.0622V14.1462H61.276V14.9917H57.1523V8.10742H61.276V8.95288Z" fill="white" stroke="white" stroke-width="0.141538" stroke-miterlimit="10"/>
<path d="M65.1038 14.9917H64.194V8.95288H62.2227V8.10742H67.0766V8.95288H65.1038V14.9917Z" fill="white" stroke="white" stroke-width="0.141538" stroke-miterlimit="10"/>
<path d="M70.5938 14.9917V8.10742H71.5021V14.9917H70.5938Z" fill="white" stroke="white" stroke-width="0.141538" stroke-miterlimit="10"/>
<path d="M75.5257 14.9917H74.6232V8.95288H72.6445V8.10742H77.5043V8.95288H75.5257V14.9917Z" fill="white" stroke="white" stroke-width="0.141538" stroke-miterlimit="10"/>
<path d="M86.6918 14.1077C85.9955 14.8039 85.1327 15.1512 84.1037 15.1512C83.0687 15.1512 82.206 14.8039 81.5096 14.1077C80.8147 13.4129 80.4688 12.5603 80.4688 11.5512C80.4688 10.5421 80.8147 9.68946 81.5096 8.99472C82.206 8.29854 83.0687 7.95117 84.1037 7.95117C85.1269 7.95117 85.9896 8.29854 86.686 9.00046C87.3867 9.70094 87.7327 10.5478 87.7327 11.5512C87.7327 12.5603 87.3867 13.4129 86.6918 14.1077ZM82.1824 13.5306C82.7065 14.0459 83.344 14.3043 84.1037 14.3043C84.8574 14.3043 85.5008 14.0459 86.019 13.5306C86.5417 13.0153 86.8067 12.3536 86.8067 11.5512C86.8067 10.7488 86.5417 10.0871 86.019 9.57176C85.5008 9.05644 84.8574 8.79807 84.1037 8.79807C83.344 8.79807 82.7065 9.05644 82.1824 9.57176C81.6598 10.0871 81.3948 10.7488 81.3948 11.5512C81.3948 12.3536 81.6598 13.0153 82.1824 13.5306Z" fill="white" stroke="white" stroke-width="0.141538" stroke-miterlimit="10"/>
<path d="M89.0117 14.9917V8.10742H90.1159L93.5491 13.4615H93.5889L93.5491 12.1381V8.10742H94.4575V14.9917H93.5094L89.9142 9.37346H89.8744L89.9142 10.7027V14.9917H89.0117Z" fill="white" stroke="white" stroke-width="0.141538" stroke-miterlimit="10"/>
<path d="M80.2478 25.0458C77.4815 25.0458 75.2217 27.0984 75.2217 29.9305C75.2217 32.7396 77.4815 34.8138 80.2478 34.8138C83.02 34.8138 85.2799 32.7396 85.2799 29.9305C85.2799 27.0984 83.02 25.0458 80.2478 25.0458ZM80.2478 32.8903C78.73 32.8903 77.4241 31.6688 77.4241 29.9305C77.4241 28.1692 78.73 26.9692 80.2478 26.9692C81.7657 26.9692 83.0774 28.1692 83.0774 29.9305C83.0774 31.6688 81.7657 32.8903 80.2478 32.8903ZM69.2812 25.0458C66.509 25.0458 64.2551 27.0984 64.2551 29.9305C64.2551 32.7396 66.509 34.8138 69.2812 34.8138C72.052 34.8138 74.3074 32.7396 74.3074 29.9305C74.3074 27.0984 72.052 25.0458 69.2812 25.0458ZM69.2812 32.8903C67.7619 32.8903 66.4516 31.6688 66.4516 29.9305C66.4516 28.1692 67.7619 26.9692 69.2812 26.9692C70.7991 26.9692 72.105 28.1692 72.105 29.9305C72.105 31.6688 70.7991 32.8903 69.2812 32.8903ZM56.2315 26.5429V28.6185H61.315C61.1663 29.7783 60.7688 30.631 60.1593 31.2252C59.4173 31.9429 58.2617 32.7396 56.2315 32.7396C53.103 32.7396 50.6532 30.2779 50.6532 27.2276C50.6532 24.1773 53.103 21.7156 56.2315 21.7156C57.923 21.7156 59.1538 22.3601 60.0622 23.1955L61.5624 21.7328C60.2919 20.55 58.6017 19.6414 56.2315 19.6414C51.9414 19.6414 48.3359 23.0448 48.3359 27.2276C48.3359 31.4104 51.9414 34.8138 56.2315 34.8138C58.5502 34.8138 60.2918 34.0731 61.661 32.6836C63.064 31.3157 63.5013 29.3922 63.5013 27.8391C63.5013 27.3568 63.4601 26.9132 63.3865 26.5429H56.2315ZM109.594 28.152C109.18 27.0597 107.903 25.0458 105.304 25.0458C102.727 25.0458 100.582 27.0252 100.582 29.9305C100.582 32.6664 102.705 34.8138 105.551 34.8138C107.852 34.8138 109.18 33.4458 109.726 32.6492L108.018 31.5396C107.449 32.352 106.673 32.8903 105.551 32.8903C104.436 32.8903 103.637 32.3922 103.125 31.4104L109.825 28.7075L109.594 28.152ZM102.763 29.7783C102.705 27.8951 104.263 26.9305 105.379 26.9305C106.253 26.9305 106.995 27.3568 107.242 27.9668L102.763 29.7783ZM97.3167 34.5166H99.5192V20.1625H97.3167V34.5166ZM93.7098 26.1338H93.6362C93.1415 25.5625 92.1978 25.0458 91.0024 25.0458C88.4937 25.0458 86.2 27.1932 86.2 29.9463C86.2 32.6836 88.4937 34.8138 91.0024 34.8138C92.1978 34.8138 93.1415 34.2927 93.6362 33.7042H93.7098V34.4047C93.7098 36.2722 92.6866 37.2755 91.0363 37.2755C89.6906 37.2755 88.8559 36.3281 88.5114 35.5315L86.596 36.3109C87.1481 37.6057 88.61 39.199 91.0363 39.199C93.6185 39.199 95.7974 37.7176 95.7974 34.1133V25.3429H93.7098V26.1338ZM91.1908 32.8903C89.673 32.8903 88.4024 31.6516 88.4024 29.9463C88.4024 28.2252 89.673 26.9692 91.1908 26.9692C92.6866 26.9692 93.8659 28.2252 93.8659 29.9463C93.8659 31.6516 92.6866 32.8903 91.1908 32.8903ZM119.905 20.1625H114.637V34.5166H116.834V29.0779H119.905C122.345 29.0779 124.737 27.3568 124.737 24.6195C124.737 21.8835 122.339 20.1625 119.905 20.1625ZM119.962 27.0812H116.834V22.1591H119.962C121.603 22.1591 122.539 23.4869 122.539 24.6195C122.539 25.7305 121.603 27.0812 119.962 27.0812ZM133.541 25.0185C131.954 25.0185 130.303 25.7018 129.625 27.2161L131.574 28.0128C131.993 27.2161 132.765 26.9577 133.581 26.9577C134.72 26.9577 135.876 27.6252 135.893 28.8037V28.9544C135.496 28.7305 134.645 28.3989 133.598 28.3989C131.499 28.3989 129.36 29.5257 129.36 31.6286C129.36 33.552 131.079 34.7908 133.012 34.7908C134.49 34.7908 135.306 34.1406 135.818 33.3841H135.893V34.4937H138.015V28.9874C138.015 26.4424 136.066 25.0185 133.541 25.0185ZM133.276 32.8846C132.557 32.8846 131.556 32.5372 131.556 31.6688C131.556 30.5578 132.805 30.1314 133.885 30.1314C134.853 30.1314 135.306 30.3396 135.893 30.6137C135.721 31.9429 134.548 32.8846 133.276 32.8846ZM145.744 25.3329L143.219 31.5554H143.144L140.534 25.3329H138.165L142.087 34.0286L139.849 38.8674H142.144L148.188 25.3329H145.744ZM125.944 34.5166H128.147V20.1625H125.944V34.5166Z" fill="white"/>
<defs>
<filter id="filter0_bii_2251_5192" x="-14.1538" y="-14.0872" width="187.308" height="74.241" filterUnits="userSpaceOnUse" color-interpolation-filters="sRGB">
<feFlood flood-opacity="0" result="BackgroundImageFix"/>
<feGaussianBlur in="BackgroundImage" stdDeviation="7.07692"/>
<feComposite in2="SourceAlpha" operator="in" result="effect1_backgroundBlur_2251_5192"/>
<feBlend mode="normal" in="SourceGraphic" in2="effect1_backgroundBlur_2251_5192" result="shape"/>
<feColorMatrix in="SourceAlpha" type="matrix" values="0 0 0 0 0 0 0 0 0 0 0 0 0 0 0 0 0 0 127 0" result="hardAlpha"/>
<feOffset dx="10.6154" dy="7.96154"/>
<feGaussianBlur stdDeviation="8.84615"/>
<feComposite in2="hardAlpha" operator="arithmetic" k2="-1" k3="1"/>
<feColorMatrix type="matrix" values="0 0 0 0 0.992951 0 0 0 0 0.993775 0 0 0 0 0.998715 0 0 0 0.16 0"/>
<feBlend mode="normal" in2="shape" result="effect2_innerShadow_2251_5192"/>
<feColorMatrix in="SourceAlpha" type="matrix" values="0 0 0 0 0 0 0 0 0 0 0 0 0 0 0 0 0 0 127 0" result="hardAlpha"/>
<feOffset dx="-4.42308" dy="-4.42308"/>
<feGaussianBlur stdDeviation="10.6154"/>
<feComposite in2="hardAlpha" operator="arithmetic" k2="-1" k3="1"/>
<feColorMatrix type="matrix" values="0 0 0 0 0.0627451 0 0 0 0 0.101961 0 0 0 0 0.337255 0 0 0 1 0"/>
<feBlend mode="normal" in2="effect2_innerShadow_2251_5192" result="effect3_innerShadow_2251_5192"/>
</filter>
<linearGradient id="paint0_linear_2251_5192" x1="159" y1="54.3917" x2="3.975" y2="-4.35" gradientUnits="userSpaceOnUse">
<stop stop-color="#8795E9" stop-opacity="0.24"/>
<stop offset="1" stop-color="#106EE8"/>
</linearGradient>
<linearGradient id="paint1_linear_2251_5192" x1="25.6735" y1="35.9998" x2="6.40785" y2="16.2402" gradientUnits="userSpaceOnUse">
<stop stop-color="#00A0FF"/>
<stop offset="0.0066" stop-color="#00A1FF"/>
<stop offset="0.2601" stop-color="#00BEFF"/>
<stop offset="0.5122" stop-color="#00D2FF"/>
<stop offset="0.7604" stop-color="#00DFFF"/>
<stop offset="1" stop-color="#00E3FF"/>
</linearGradient>
<linearGradient id="paint2_linear_2251_5192" x1="39.8509" y1="23.0317" x2="11.3524" y2="23.0317" gradientUnits="userSpaceOnUse">
<stop stop-color="#FFE000"/>
<stop offset="0.4087" stop-color="#FFBD00"/>
<stop offset="0.7754" stop-color="#FFA500"/>
<stop offset="1" stop-color="#FF9C00"/>
</linearGradient>
<linearGradient id="paint3_linear_2251_5192" x1="29.2396" y1="20.3975" x2="3.1139" y2="-6.39815" gradientUnits="userSpaceOnUse">
<stop stop-color="#FF3A44"/>
<stop offset="1" stop-color="#C31162"/>
</linearGradient>
<linearGradient id="paint4_linear_2251_5192" x1="8.59355" y1="45.7995" x2="20.2599" y2="33.8341" gradientUnits="userSpaceOnUse">
<stop stop-color="#32A071"/>
<stop offset="0.0685" stop-color="#2DA771"/>
<stop offset="0.4762" stop-color="#15CF74"/>
<stop offset="0.8009" stop-color="#06E775"/>
<stop offset="1" stop-color="#00F076"/>
</linearGradient>
</defs>
</svg>
