<svg width="34" height="33" viewBox="0 0 34 33" fill="none" xmlns="http://www.w3.org/2000/svg">
<rect x="0.762695" width="32.6667" height="32.3334" rx="16.1667" fill="#1F1F1F"/>
<path d="M25.4294 11.5767C24.8047 11.8495 24.1431 12.0284 23.466 12.1075C24.1767 11.6902 24.7111 11.0284 24.9694 10.2459C24.296 10.6378 23.5616 10.9139 22.7969 11.0625C22.4748 10.7252 22.0874 10.457 21.6583 10.2743C21.2292 10.0917 20.7674 9.99833 20.301 10C18.4127 10 16.8819 11.5084 16.8819 13.3667C16.8819 13.63 16.9119 13.8875 16.9702 14.1334C15.6157 14.0689 14.2895 13.7229 13.0762 13.1172C11.8629 12.5116 10.7892 11.6597 9.92353 10.6159C9.62005 11.1279 9.46054 11.7123 9.46186 12.3075C9.46244 12.8642 9.60172 13.4119 9.8671 13.9012C10.1325 14.3905 10.5156 14.8059 10.9819 15.11C10.4398 15.0925 9.90938 14.9478 9.43353 14.6875V14.7292C9.43353 16.3609 10.6127 17.7217 12.1752 18.0317C11.8815 18.1096 11.579 18.1491 11.2752 18.1492C11.0544 18.1492 10.8402 18.1284 10.631 18.0867C10.8544 18.76 11.282 19.3469 11.8542 19.7661C12.4265 20.1853 13.1151 20.4159 13.8244 20.4259C12.6078 21.363 11.1142 21.8692 9.57853 21.865C9.30186 21.865 9.0302 21.8484 8.7627 21.8184C10.3304 22.8106 12.1482 23.3361 14.0035 23.3334C20.2927 23.3334 23.731 18.2025 23.731 13.7534L23.7194 13.3175C24.3901 12.8456 24.9695 12.2557 25.4294 11.5767V11.5767Z" fill="#A3A3A3"/>
</svg>
