<svg width="34" height="33" viewBox="0 0 34 33" fill="none" xmlns="http://www.w3.org/2000/svg">
<rect x="0.429199" width="32.6308" height="32.64" rx="16.3154" fill="#1F1F1F"/>
<path d="M21.6059 11.0008H11.8834C9.97503 11.0008 8.4292 12.53 8.4292 14.4167V19.2233C8.4292 21.11 9.97587 22.64 11.8834 22.64H21.6059C23.5142 22.64 25.06 21.11 25.06 19.2233V14.4167C25.06 12.53 23.5134 11 21.6059 11V11.0008ZM19.27 17.0533L14.7225 19.1992C14.6948 19.2125 14.6641 19.2186 14.6334 19.217C14.6027 19.2153 14.5728 19.2058 14.5467 19.1895C14.5206 19.1732 14.499 19.1506 14.484 19.1237C14.469 19.0969 14.4611 19.0666 14.4609 19.0358V14.6117C14.4614 14.5807 14.4698 14.5504 14.4852 14.5236C14.5006 14.4968 14.5226 14.4743 14.549 14.4582C14.5755 14.4422 14.6056 14.4331 14.6365 14.4318C14.6674 14.4305 14.6982 14.437 14.7259 14.4508L19.2742 16.73C19.3045 16.7451 19.3299 16.7685 19.3475 16.7974C19.3652 16.8263 19.3743 16.8595 19.3738 16.8934C19.3734 16.9272 19.3634 16.9603 19.3451 16.9887C19.3267 17.0172 19.3007 17.0398 19.27 17.0542V17.0533Z" fill="#A3A3A3"/>
</svg>
