<svg width="33" height="33" viewBox="0 0 33 33" fill="none" xmlns="http://www.w3.org/2000/svg">
<rect x="0.0600586" width="32.6325" height="32.8933" rx="16.3162" fill="#1F1F1F"/>
<path d="M24.6926 17.7442V23.8933H21.1276V18.1558C21.1276 16.7142 20.6117 15.7308 19.3217 15.7308C18.3367 15.7308 17.7501 16.3942 17.4926 17.035C17.3984 17.2642 17.3742 17.5833 17.3742 17.9042V23.8933H13.8076C13.8076 23.8933 13.8559 14.1767 13.8076 13.1692H17.3742V14.6892L17.3509 14.7242H17.3742V14.6892C17.8476 13.96 18.6934 12.9175 20.5876 12.9175C22.9334 12.9175 24.6926 14.4508 24.6926 17.7442V17.7442ZM10.0776 8C8.85839 8 8.06006 8.8 8.06006 9.8525C8.06006 10.8817 8.83506 11.7058 10.0309 11.7058H10.0542C11.2984 11.7058 12.0709 10.8817 12.0709 9.8525C12.0492 8.8 11.2992 8 10.0784 8H10.0776ZM8.27173 23.8933H11.8367V13.1692H8.27173V23.8933Z" fill="#A3A3A3"/>
</svg>
