<svg width="40" height="40" viewBox="0 0 40 40" fill="none" xmlns="http://www.w3.org/2000/svg">
<rect x="40" y="40" width="40" height="40" rx="20" transform="rotate(-180 40 40)" fill="#6BA7F5"/>
<path d="M21.9594 26.0405C22.3499 26.431 22.9831 26.431 23.3736 26.0405C23.7641 25.6499 23.7641 25.0168 23.3736 24.6262L21.9594 26.0405ZM17.3332 20L16.6261 19.2929C16.2355 19.6834 16.2355 20.3166 16.6261 20.7071L17.3332 20ZM23.3736 15.3738C23.7641 14.9833 23.7641 14.3501 23.3736 13.9596C22.9831 13.569 22.3499 13.569 21.9594 13.9596L23.3736 15.3738ZM23.3736 24.6262L18.0403 19.2929L16.6261 20.7071L21.9594 26.0405L23.3736 24.6262ZM18.0403 20.7071L23.3736 15.3738L21.9594 13.9596L16.6261 19.2929L18.0403 20.7071Z" fill="white"/>
</svg>
