<svg width="55" height="55" viewBox="0 0 55 55" fill="none" xmlns="http://www.w3.org/2000/svg">
<rect x="8.94922" y="41.4792" width="25.4104" height="9.24016" rx="4.62008" transform="rotate(-45 8.94922 41.4792)" fill="url(#paint0_linear_1783_61)"/>
<g filter="url(#filter0_b_1783_61)">
<path d="M42.4091 37.6518C36.0301 44.0308 25.5837 43.9269 19.0765 37.4196C12.5693 30.9124 12.4653 20.4661 18.8443 14.0871C25.2233 7.70807 35.6697 7.81201 42.1769 14.3192C48.6841 20.8265 48.7881 31.2728 42.4091 37.6518Z" fill="#95A1EA" fill-opacity="0.6"/>
</g>
<g filter="url(#filter1_b_1783_61)">
<path d="M39.6352 34.8775C34.532 39.9807 26.362 40.0846 21.387 35.1096C16.4121 30.1347 16.516 21.9647 21.6192 16.8615C26.7224 11.7583 34.8924 11.6544 39.8674 16.6293C44.8423 21.6043 44.7384 29.7743 39.6352 34.8775Z" fill="#D2D9FF" fill-opacity="0.72"/>
<path d="M39.2816 34.5239C34.3652 39.4404 26.5119 39.5274 21.7406 34.7561C16.9693 29.9848 17.0563 22.1315 21.9728 17.2151C26.8892 12.2986 34.7425 12.2116 39.5138 16.9829C44.2851 21.7542 44.1981 29.6074 39.2816 34.5239Z" stroke="url(#paint1_linear_1783_61)"/>
</g>
<defs>
<filter id="filter0_b_1783_61" x="8.99327" y="4.23643" width="43.2674" height="43.2661" filterUnits="userSpaceOnUse" color-interpolation-filters="sRGB">
<feFlood flood-opacity="0" result="BackgroundImageFix"/>
<feGaussianBlur in="BackgroundImage" stdDeviation="2.56684"/>
<feComposite in2="SourceAlpha" operator="in" result="effect1_backgroundBlur_1783_61"/>
<feBlend mode="normal" in="SourceGraphic" in2="effect1_backgroundBlur_1783_61" result="shape"/>
</filter>
<filter id="filter1_b_1783_61" x="12.589" y="7.8314" width="36.076" height="36.0762" filterUnits="userSpaceOnUse" color-interpolation-filters="sRGB">
<feFlood flood-opacity="0" result="BackgroundImageFix"/>
<feGaussianBlur in="BackgroundImage" stdDeviation="2.56684"/>
<feComposite in2="SourceAlpha" operator="in" result="effect1_backgroundBlur_1783_61"/>
<feBlend mode="normal" in="SourceGraphic" in2="effect1_backgroundBlur_1783_61" result="shape"/>
</filter>
<linearGradient id="paint0_linear_1783_61" x1="14.6006" y1="44.7626" x2="20.9328" y2="60.0526" gradientUnits="userSpaceOnUse">
<stop stop-color="#95A1EA"/>
<stop offset="1" stop-color="#1E2F97"/>
</linearGradient>
<linearGradient id="paint1_linear_1783_61" x1="6.57118" y1="12.6354" x2="44.0954" y2="34.2002" gradientUnits="userSpaceOnUse">
<stop stop-color="white"/>
<stop offset="1" stop-color="white" stop-opacity="0"/>
</linearGradient>
</defs>
</svg>
