<svg width="131" height="52" viewBox="0 0 131 52" fill="none" xmlns="http://www.w3.org/2000/svg">
<path d="M6.867 40.79V47H6.237V42.041L4.023 47H3.564L1.35 42.059V47H0.72V40.79H1.386L3.789 46.172L6.192 40.79H6.867ZM10.2672 47.072C9.80517 47.072 9.38817 46.97 9.01617 46.766C8.65017 46.556 8.35917 46.262 8.14317 45.884C7.93317 45.5 7.82817 45.053 7.82817 44.543C7.82817 44.033 7.93617 43.589 8.15217 43.211C8.36817 42.827 8.66217 42.533 9.03417 42.329C9.40617 42.119 9.82317 42.014 10.2852 42.014C10.7472 42.014 11.1642 42.119 11.5362 42.329C11.9142 42.533 12.2082 42.827 12.4182 43.211C12.6342 43.589 12.7422 44.033 12.7422 44.543C12.7422 45.047 12.6342 45.491 12.4182 45.875C12.2022 46.259 11.9052 46.556 11.5272 46.766C11.1492 46.97 10.7292 47.072 10.2672 47.072ZM10.2672 46.523C10.5912 46.523 10.8912 46.451 11.1672 46.307C11.4432 46.157 11.6652 45.935 11.8332 45.641C12.0072 45.341 12.0942 44.975 12.0942 44.543C12.0942 44.111 12.0102 43.748 11.8422 43.454C11.6742 43.154 11.4522 42.932 11.1762 42.788C10.9002 42.638 10.6002 42.563 10.2762 42.563C9.95217 42.563 9.65217 42.638 9.37617 42.788C9.10017 42.932 8.87817 43.154 8.71017 43.454C8.54817 43.748 8.46717 44.111 8.46717 44.543C8.46717 44.975 8.54817 45.341 8.71017 45.641C8.87817 45.935 9.09717 46.157 9.36717 46.307C9.64317 46.451 9.94317 46.523 10.2672 46.523ZM16.0146 41.996C16.6026 41.996 17.0826 42.179 17.4546 42.545C17.8266 42.905 18.0126 43.43 18.0126 44.12V47H17.3916V44.192C17.3916 43.658 17.2566 43.25 16.9866 42.968C16.7226 42.686 16.3596 42.545 15.8976 42.545C15.4236 42.545 15.0456 42.695 14.7636 42.995C14.4816 43.295 14.3406 43.736 14.3406 44.318V47H13.7106V42.086H14.3406V42.923C14.4966 42.623 14.7216 42.395 15.0156 42.239C15.3096 42.077 15.6426 41.996 16.0146 41.996ZM23.6719 44.291C23.6719 44.507 23.6659 44.672 23.6539 44.786H19.5769C19.5949 45.158 19.6849 45.476 19.8469 45.74C20.0089 46.004 20.2219 46.205 20.4859 46.343C20.7499 46.475 21.0379 46.541 21.3499 46.541C21.7579 46.541 22.0999 46.442 22.3759 46.244C22.6579 46.046 22.8439 45.779 22.9339 45.443H23.5999C23.4799 45.923 23.2219 46.316 22.8259 46.622C22.4359 46.922 21.9439 47.072 21.3499 47.072C20.8879 47.072 20.4739 46.97 20.1079 46.766C19.7419 46.556 19.4539 46.262 19.2439 45.884C19.0399 45.5 18.9379 45.053 18.9379 44.543C18.9379 44.033 19.0399 43.586 19.2439 43.202C19.4479 42.818 19.7329 42.524 20.0989 42.32C20.4649 42.116 20.8819 42.014 21.3499 42.014C21.8179 42.014 22.2259 42.116 22.5739 42.32C22.9279 42.524 23.1979 42.8 23.3839 43.148C23.5759 43.49 23.6719 43.871 23.6719 44.291ZM23.0329 44.273C23.0389 43.907 22.9639 43.595 22.8079 43.337C22.6579 43.079 22.4509 42.884 22.1869 42.752C21.9229 42.62 21.6349 42.554 21.3229 42.554C20.8549 42.554 20.4559 42.704 20.1259 43.004C19.7959 43.304 19.6129 43.727 19.5769 44.273H23.0329ZM28.6945 42.086L25.7785 49.313H25.1215L26.0755 46.973L24.0595 42.086H24.7525L26.4265 46.28L28.0465 42.086H28.6945ZM32.2886 40.709V47H31.6586V40.709H32.2886ZM35.8392 41.996C36.4272 41.996 36.9072 42.179 37.2792 42.545C37.6512 42.905 37.8372 43.43 37.8372 44.12V47H37.2162V44.192C37.2162 43.658 37.0812 43.25 36.8112 42.968C36.5472 42.686 36.1842 42.545 35.7222 42.545C35.2482 42.545 34.8702 42.695 34.5882 42.995C34.3062 43.295 34.1652 43.736 34.1652 44.318V47H33.5352V42.086H34.1652V42.923C34.3212 42.623 34.5462 42.395 34.8402 42.239C35.1342 42.077 35.4672 41.996 35.8392 41.996ZM40.7965 46.388L42.4525 42.086H43.1185L41.1475 47H40.4365L38.4655 42.086H39.1405L40.7965 46.388ZM48.2384 44.291C48.2384 44.507 48.2324 44.672 48.2204 44.786H44.1434C44.1614 45.158 44.2514 45.476 44.4134 45.74C44.5754 46.004 44.7884 46.205 45.0524 46.343C45.3164 46.475 45.6044 46.541 45.9164 46.541C46.3244 46.541 46.6664 46.442 46.9424 46.244C47.2244 46.046 47.4104 45.779 47.5004 45.443H48.1664C48.0464 45.923 47.7884 46.316 47.3924 46.622C47.0024 46.922 46.5104 47.072 45.9164 47.072C45.4544 47.072 45.0404 46.97 44.6744 46.766C44.3084 46.556 44.0204 46.262 43.8104 45.884C43.6064 45.5 43.5044 45.053 43.5044 44.543C43.5044 44.033 43.6064 43.586 43.8104 43.202C44.0144 42.818 44.2994 42.524 44.6654 42.32C45.0314 42.116 45.4484 42.014 45.9164 42.014C46.3844 42.014 46.7924 42.116 47.1404 42.32C47.4944 42.524 47.7644 42.8 47.9504 43.148C48.1424 43.49 48.2384 43.871 48.2384 44.291ZM47.5994 44.273C47.6054 43.907 47.5304 43.595 47.3744 43.337C47.2244 43.079 47.0174 42.884 46.7534 42.752C46.4894 42.62 46.2014 42.554 45.8894 42.554C45.4214 42.554 45.0224 42.704 44.6924 43.004C44.3624 43.304 44.1794 43.727 44.1434 44.273H47.5994ZM50.903 47.072C50.339 47.072 49.877 46.943 49.517 46.685C49.163 46.421 48.965 46.064 48.923 45.614H49.571C49.601 45.89 49.73 46.115 49.958 46.289C50.192 46.457 50.504 46.541 50.894 46.541C51.236 46.541 51.503 46.46 51.695 46.298C51.893 46.136 51.992 45.935 51.992 45.695C51.992 45.527 51.938 45.389 51.83 45.281C51.722 45.173 51.584 45.089 51.416 45.029C51.254 44.963 51.032 44.894 50.75 44.822C50.384 44.726 50.087 44.63 49.859 44.534C49.631 44.438 49.436 44.297 49.274 44.111C49.118 43.919 49.04 43.664 49.04 43.346C49.04 43.106 49.112 42.884 49.256 42.68C49.4 42.476 49.604 42.314 49.868 42.194C50.132 42.074 50.432 42.014 50.768 42.014C51.296 42.014 51.722 42.149 52.046 42.419C52.37 42.683 52.544 43.049 52.568 43.517H51.938C51.92 43.229 51.806 42.998 51.596 42.824C51.392 42.644 51.11 42.554 50.75 42.554C50.432 42.554 50.174 42.629 49.976 42.779C49.778 42.929 49.679 43.115 49.679 43.337C49.679 43.529 49.736 43.688 49.85 43.814C49.97 43.934 50.117 44.03 50.291 44.102C50.465 44.168 50.699 44.243 50.993 44.327C51.347 44.423 51.629 44.516 51.839 44.606C52.049 44.696 52.229 44.828 52.379 45.002C52.529 45.176 52.607 45.407 52.613 45.695C52.613 45.959 52.541 46.196 52.397 46.406C52.253 46.61 52.052 46.772 51.794 46.892C51.536 47.012 51.239 47.072 50.903 47.072ZM54.4379 42.617V45.668C54.4379 45.968 54.4949 46.175 54.6089 46.289C54.7229 46.403 54.9239 46.46 55.2119 46.46H55.7879V47H55.1129C54.6689 47 54.3389 46.898 54.1229 46.694C53.9069 46.484 53.7989 46.142 53.7989 45.668V42.617H53.1149V42.086H53.7989V40.853H54.4379V42.086H55.7879V42.617H54.4379ZM61.0929 44.291C61.0929 44.507 61.0869 44.672 61.0749 44.786H56.9979C57.0159 45.158 57.1059 45.476 57.2679 45.74C57.4299 46.004 57.6429 46.205 57.9069 46.343C58.1709 46.475 58.4589 46.541 58.7709 46.541C59.1789 46.541 59.5209 46.442 59.7969 46.244C60.0789 46.046 60.2649 45.779 60.3549 45.443H61.0209C60.9009 45.923 60.6429 46.316 60.2469 46.622C59.8569 46.922 59.3649 47.072 58.7709 47.072C58.3089 47.072 57.8949 46.97 57.5289 46.766C57.1629 46.556 56.8749 46.262 56.6649 45.884C56.4609 45.5 56.3589 45.053 56.3589 44.543C56.3589 44.033 56.4609 43.586 56.6649 43.202C56.8689 42.818 57.1539 42.524 57.5199 42.32C57.8859 42.116 58.3029 42.014 58.7709 42.014C59.2389 42.014 59.6469 42.116 59.9949 42.32C60.3489 42.524 60.6189 42.8 60.8049 43.148C60.9969 43.49 61.0929 43.871 61.0929 44.291ZM60.4539 44.273C60.4599 43.907 60.3849 43.595 60.2289 43.337C60.0789 43.079 59.8719 42.884 59.6079 42.752C59.3439 42.62 59.0559 42.554 58.7439 42.554C58.2759 42.554 57.8769 42.704 57.5469 43.004C57.2169 43.304 57.0339 43.727 56.9979 44.273H60.4539ZM61.7775 44.534C61.7775 44.03 61.8795 43.589 62.0835 43.211C62.2875 42.827 62.5665 42.533 62.9205 42.329C63.2805 42.119 63.6855 42.014 64.1355 42.014C64.5675 42.014 64.9575 42.119 65.3055 42.329C65.6535 42.539 65.9085 42.812 66.0705 43.148V40.34H66.7005V47H66.0705V45.902C65.9205 46.244 65.6745 46.526 65.3325 46.748C64.9905 46.964 64.5885 47.072 64.1265 47.072C63.6765 47.072 63.2715 46.967 62.9115 46.757C62.5575 46.547 62.2785 46.25 62.0745 45.866C61.8765 45.482 61.7775 45.038 61.7775 44.534ZM66.0705 44.543C66.0705 44.147 65.9895 43.799 65.8275 43.499C65.6655 43.199 65.4435 42.968 65.1615 42.806C64.8855 42.644 64.5795 42.563 64.2435 42.563C63.8955 42.563 63.5835 42.641 63.3075 42.797C63.0315 42.953 62.8125 43.181 62.6505 43.481C62.4945 43.775 62.4165 44.126 62.4165 44.534C62.4165 44.936 62.4945 45.29 62.6505 45.596C62.8125 45.896 63.0315 46.127 63.3075 46.289C63.5835 46.445 63.8955 46.523 64.2435 46.523C64.5795 46.523 64.8855 46.442 65.1615 46.28C65.4435 46.118 65.6655 45.887 65.8275 45.587C65.9895 45.287 66.0705 44.939 66.0705 44.543ZM70.5635 41.159C70.4375 41.159 70.3295 41.114 70.2395 41.024C70.1495 40.934 70.1045 40.823 70.1045 40.691C70.1045 40.559 70.1495 40.451 70.2395 40.367C70.3295 40.277 70.4375 40.232 70.5635 40.232C70.6895 40.232 70.7975 40.277 70.8875 40.367C70.9775 40.451 71.0225 40.559 71.0225 40.691C71.0225 40.823 70.9775 40.934 70.8875 41.024C70.7975 41.114 70.6895 41.159 70.5635 41.159ZM70.8785 42.086V47H70.2485V42.086H70.8785ZM74.4292 41.996C75.0172 41.996 75.4972 42.179 75.8692 42.545C76.2412 42.905 76.4272 43.43 76.4272 44.12V47H75.8062V44.192C75.8062 43.658 75.6712 43.25 75.4012 42.968C75.1372 42.686 74.7742 42.545 74.3122 42.545C73.8382 42.545 73.4602 42.695 73.1782 42.995C72.8962 43.295 72.7552 43.736 72.7552 44.318V47H72.1252V42.086H72.7552V42.923C72.9112 42.623 73.1362 42.395 73.4302 42.239C73.7242 42.077 74.0572 41.996 74.4292 41.996ZM83.2782 47L81.7212 44.372H80.5602V47H79.9302V40.709H81.8202C82.5222 40.709 83.0532 40.877 83.4132 41.213C83.7792 41.549 83.9622 41.99 83.9622 42.536C83.9622 42.992 83.8302 43.382 83.5662 43.706C83.3082 44.024 82.9242 44.231 82.4142 44.327L84.0342 47H83.2782ZM80.5602 43.859H81.8292C82.3212 43.859 82.6902 43.739 82.9362 43.499C83.1882 43.259 83.3142 42.938 83.3142 42.536C83.3142 42.122 83.1942 41.804 82.9542 41.582C82.7142 41.354 82.3362 41.24 81.8202 41.24H80.5602V43.859ZM85.3474 41.159C85.2214 41.159 85.1134 41.114 85.0234 41.024C84.9334 40.934 84.8884 40.823 84.8884 40.691C84.8884 40.559 84.9334 40.451 85.0234 40.367C85.1134 40.277 85.2214 40.232 85.3474 40.232C85.4734 40.232 85.5814 40.277 85.6714 40.367C85.7614 40.451 85.8064 40.559 85.8064 40.691C85.8064 40.823 85.7614 40.934 85.6714 41.024C85.5814 41.114 85.4734 41.159 85.3474 41.159ZM85.6624 42.086V47H85.0324V42.086H85.6624ZM88.9701 42.014C89.4321 42.014 89.8341 42.122 90.1761 42.338C90.5181 42.554 90.7641 42.827 90.9141 43.157V42.086H91.5441V47.126C91.5441 47.576 91.4451 47.975 91.2471 48.323C91.0551 48.671 90.7851 48.938 90.4371 49.124C90.0891 49.316 89.6931 49.412 89.2491 49.412C88.6191 49.412 88.0941 49.262 87.6741 48.962C87.2601 48.662 87.0021 48.254 86.9001 47.738H87.5211C87.6291 48.08 87.8331 48.353 88.1331 48.557C88.4391 48.761 88.8111 48.863 89.2491 48.863C89.5671 48.863 89.8521 48.794 90.1041 48.656C90.3561 48.524 90.5541 48.326 90.6981 48.062C90.8421 47.798 90.9141 47.486 90.9141 47.126V45.911C90.7581 46.247 90.5091 46.526 90.1671 46.748C89.8311 46.964 89.4321 47.072 88.9701 47.072C88.5201 47.072 88.1151 46.967 87.7551 46.757C87.4011 46.547 87.1221 46.25 86.9181 45.866C86.7201 45.482 86.6211 45.038 86.6211 44.534C86.6211 44.03 86.7201 43.589 86.9181 43.211C87.1221 42.827 87.4011 42.533 87.7551 42.329C88.1151 42.119 88.5201 42.014 88.9701 42.014ZM90.9141 44.543C90.9141 44.147 90.8331 43.799 90.6711 43.499C90.5091 43.199 90.2871 42.968 90.0051 42.806C89.7291 42.644 89.4231 42.563 89.0871 42.563C88.7391 42.563 88.4271 42.641 88.1511 42.797C87.8751 42.953 87.6561 43.181 87.4941 43.481C87.3381 43.775 87.2601 44.126 87.2601 44.534C87.2601 44.936 87.3381 45.29 87.4941 45.596C87.6561 45.896 87.8751 46.127 88.1511 46.289C88.4271 46.445 88.7391 46.523 89.0871 46.523C89.4231 46.523 89.7291 46.442 90.0051 46.28C90.2871 46.118 90.5091 45.887 90.6711 45.587C90.8331 45.287 90.9141 44.939 90.9141 44.543ZM95.1423 41.996C95.5143 41.996 95.8473 42.074 96.1413 42.23C96.4413 42.386 96.6753 42.626 96.8433 42.95C97.0173 43.268 97.1043 43.658 97.1043 44.12V47H96.4833V44.192C96.4833 43.658 96.3483 43.25 96.0783 42.968C95.8143 42.686 95.4513 42.545 94.9893 42.545C94.5153 42.545 94.1373 42.695 93.8553 42.995C93.5733 43.295 93.4323 43.736 93.4323 44.318V47H92.8023V40.34H93.4323V42.923C93.5883 42.629 93.8163 42.401 94.1163 42.239C94.4223 42.077 94.7643 41.996 95.1423 41.996ZM99.1366 42.617V45.668C99.1366 45.968 99.1936 46.175 99.3076 46.289C99.4216 46.403 99.6226 46.46 99.9106 46.46H100.487V47H99.8116C99.3676 47 99.0376 46.898 98.8216 46.694C98.6056 46.484 98.4976 46.142 98.4976 45.668V42.617H97.8136V42.086H98.4976V40.853H99.1366V42.086H100.487V42.617H99.1366ZM107.28 45.506H104.418L103.869 47H103.203L105.498 40.79H106.209L108.495 47H107.829L107.28 45.506ZM107.091 44.984L105.849 41.582L104.607 44.984H107.091ZM111.018 47.072C110.454 47.072 109.992 46.943 109.632 46.685C109.278 46.421 109.08 46.064 109.038 45.614H109.686C109.716 45.89 109.845 46.115 110.073 46.289C110.307 46.457 110.619 46.541 111.009 46.541C111.351 46.541 111.618 46.46 111.81 46.298C112.008 46.136 112.107 45.935 112.107 45.695C112.107 45.527 112.053 45.389 111.945 45.281C111.837 45.173 111.699 45.089 111.531 45.029C111.369 44.963 111.147 44.894 110.865 44.822C110.499 44.726 110.202 44.63 109.974 44.534C109.746 44.438 109.551 44.297 109.389 44.111C109.233 43.919 109.155 43.664 109.155 43.346C109.155 43.106 109.227 42.884 109.371 42.68C109.515 42.476 109.719 42.314 109.983 42.194C110.247 42.074 110.547 42.014 110.883 42.014C111.411 42.014 111.837 42.149 112.161 42.419C112.485 42.683 112.659 43.049 112.683 43.517H112.053C112.035 43.229 111.921 42.998 111.711 42.824C111.507 42.644 111.225 42.554 110.865 42.554C110.547 42.554 110.289 42.629 110.091 42.779C109.893 42.929 109.794 43.115 109.794 43.337C109.794 43.529 109.851 43.688 109.965 43.814C110.085 43.934 110.232 44.03 110.406 44.102C110.58 44.168 110.814 44.243 111.108 44.327C111.462 44.423 111.744 44.516 111.954 44.606C112.164 44.696 112.344 44.828 112.494 45.002C112.644 45.176 112.722 45.407 112.728 45.695C112.728 45.959 112.656 46.196 112.512 46.406C112.368 46.61 112.167 46.772 111.909 46.892C111.651 47.012 111.354 47.072 111.018 47.072ZM115.426 47.072C114.862 47.072 114.4 46.943 114.04 46.685C113.686 46.421 113.488 46.064 113.446 45.614H114.094C114.124 45.89 114.253 46.115 114.481 46.289C114.715 46.457 115.027 46.541 115.417 46.541C115.759 46.541 116.026 46.46 116.218 46.298C116.416 46.136 116.515 45.935 116.515 45.695C116.515 45.527 116.461 45.389 116.353 45.281C116.245 45.173 116.107 45.089 115.939 45.029C115.777 44.963 115.555 44.894 115.273 44.822C114.907 44.726 114.61 44.63 114.382 44.534C114.154 44.438 113.959 44.297 113.797 44.111C113.641 43.919 113.563 43.664 113.563 43.346C113.563 43.106 113.635 42.884 113.779 42.68C113.923 42.476 114.127 42.314 114.391 42.194C114.655 42.074 114.955 42.014 115.291 42.014C115.819 42.014 116.245 42.149 116.569 42.419C116.893 42.683 117.067 43.049 117.091 43.517H116.461C116.443 43.229 116.329 42.998 116.119 42.824C115.915 42.644 115.633 42.554 115.273 42.554C114.955 42.554 114.697 42.629 114.499 42.779C114.301 42.929 114.202 43.115 114.202 43.337C114.202 43.529 114.259 43.688 114.373 43.814C114.493 43.934 114.64 44.03 114.814 44.102C114.988 44.168 115.222 44.243 115.516 44.327C115.87 44.423 116.152 44.516 116.362 44.606C116.572 44.696 116.752 44.828 116.902 45.002C117.052 45.176 117.13 45.407 117.136 45.695C117.136 45.959 117.064 46.196 116.92 46.406C116.776 46.61 116.575 46.772 116.317 46.892C116.059 47.012 115.762 47.072 115.426 47.072ZM122.588 44.291C122.588 44.507 122.582 44.672 122.57 44.786H118.493C118.511 45.158 118.601 45.476 118.763 45.74C118.925 46.004 119.138 46.205 119.402 46.343C119.666 46.475 119.954 46.541 120.266 46.541C120.674 46.541 121.016 46.442 121.292 46.244C121.574 46.046 121.76 45.779 121.85 45.443H122.516C122.396 45.923 122.138 46.316 121.742 46.622C121.352 46.922 120.86 47.072 120.266 47.072C119.804 47.072 119.39 46.97 119.024 46.766C118.658 46.556 118.37 46.262 118.16 45.884C117.956 45.5 117.854 45.053 117.854 44.543C117.854 44.033 117.956 43.586 118.16 43.202C118.364 42.818 118.649 42.524 119.015 42.32C119.381 42.116 119.798 42.014 120.266 42.014C120.734 42.014 121.142 42.116 121.49 42.32C121.844 42.524 122.114 42.8 122.3 43.148C122.492 43.49 122.588 43.871 122.588 44.291ZM121.949 44.273C121.955 43.907 121.88 43.595 121.724 43.337C121.574 43.079 121.367 42.884 121.103 42.752C120.839 42.62 120.551 42.554 120.239 42.554C119.771 42.554 119.372 42.704 119.042 43.004C118.712 43.304 118.529 43.727 118.493 44.273H121.949ZM124.38 42.617V45.668C124.38 45.968 124.437 46.175 124.551 46.289C124.665 46.403 124.866 46.46 125.154 46.46H125.73V47H125.055C124.611 47 124.281 46.898 124.065 46.694C123.849 46.484 123.741 46.142 123.741 45.668V42.617H123.057V42.086H123.741V40.853H124.38V42.086H125.73V42.617H124.38ZM128.281 47.072C127.717 47.072 127.255 46.943 126.895 46.685C126.541 46.421 126.343 46.064 126.301 45.614H126.949C126.979 45.89 127.108 46.115 127.336 46.289C127.57 46.457 127.882 46.541 128.272 46.541C128.614 46.541 128.881 46.46 129.073 46.298C129.271 46.136 129.37 45.935 129.37 45.695C129.37 45.527 129.316 45.389 129.208 45.281C129.1 45.173 128.962 45.089 128.794 45.029C128.632 44.963 128.41 44.894 128.128 44.822C127.762 44.726 127.465 44.63 127.237 44.534C127.009 44.438 126.814 44.297 126.652 44.111C126.496 43.919 126.418 43.664 126.418 43.346C126.418 43.106 126.49 42.884 126.634 42.68C126.778 42.476 126.982 42.314 127.246 42.194C127.51 42.074 127.81 42.014 128.146 42.014C128.674 42.014 129.1 42.149 129.424 42.419C129.748 42.683 129.922 43.049 129.946 43.517H129.316C129.298 43.229 129.184 42.998 128.974 42.824C128.77 42.644 128.488 42.554 128.128 42.554C127.81 42.554 127.552 42.629 127.354 42.779C127.156 42.929 127.057 43.115 127.057 43.337C127.057 43.529 127.114 43.688 127.228 43.814C127.348 43.934 127.495 44.03 127.669 44.102C127.843 44.168 128.077 44.243 128.371 44.327C128.725 44.423 129.007 44.516 129.217 44.606C129.427 44.696 129.607 44.828 129.757 45.002C129.907 45.176 129.985 45.407 129.991 45.695C129.991 45.959 129.919 46.196 129.775 46.406C129.631 46.61 129.43 46.772 129.172 46.892C128.914 47.012 128.617 47.072 128.281 47.072Z" fill="#1BF5AF"/>
<path d="M1 1.33654V36L7.05769 31.9615V13.4519L18.5 22.875L30.6154 13.4519V31.9615L36.3365 36V1.33654L18.5 14.7981L1 1.33654Z" fill="#1BF5AF"/>
<path d="M45.7596 1.33654V36L51.8173 31.9615V1.33654H45.7596Z" fill="#1BF5AF"/>
<path d="M102.298 35.6635H94.8942L112.058 1.33654L129.558 35.6635H122.154L112.058 14.4615L102.298 35.6635Z" fill="#1BF5AF"/>
<path d="M61.5769 1V7.05769H77.3942C79.9963 7.05769 82.1058 8.83058 82.1058 11.4327C82.1058 14.0348 79.9963 16.1442 77.3942 16.1442H61.5769V22.2019H74.7019L82.1058 36H88.1635L80.4792 21.7536C84.9235 20.4271 88.1635 16.3083 88.1635 11.4327C88.1635 5.48501 83.3419 1 77.3942 1H61.5769Z" fill="#1BF5AF"/>
<path d="M1 1.33654V36L7.05769 31.9615V13.4519L18.5 22.875L30.6154 13.4519V31.9615L36.3365 36V1.33654L18.5 14.7981L1 1.33654Z" stroke="#3070C7" stroke-width="0.673077"/>
<path d="M45.7596 1.33654V36L51.8173 31.9615V1.33654H45.7596Z" stroke="#3070C7" stroke-width="0.673077"/>
<path d="M102.298 35.6635H94.8942L112.058 1.33654L129.558 35.6635H122.154L112.058 14.4615L102.298 35.6635Z" stroke="#3070C7" stroke-width="0.673077"/>
<path d="M61.5769 1V7.05769H77.3942C79.9963 7.05769 82.1058 8.83058 82.1058 11.4327C82.1058 14.0348 79.9963 16.1442 77.3942 16.1442H61.5769V22.2019H74.7019L82.1058 36H88.1635L80.4792 21.7536C84.9235 20.4271 88.1635 16.3083 88.1635 11.4327C88.1635 5.48501 83.3419 1 77.3942 1H61.5769Z" stroke="#3070C7" stroke-width="0.673077"/>
</svg>
