<svg width="131" height="37" viewBox="0 0 131 37" fill="none" xmlns="http://www.w3.org/2000/svg">
<path d="M1 1.33654V36L7.05769 31.9615V13.4519L18.5 22.875L30.6154 13.4519V31.9615L36.3365 36V1.33654L18.5 14.7981L1 1.33654Z" fill="#106EE8"/>
<path d="M45.7596 1.33654V36L51.8173 31.9615V1.33654H45.7596Z" fill="#106EE8"/>
<path d="M102.298 35.6635H94.8942L112.058 1.33654L129.558 35.6635H122.154L112.058 14.4615L102.298 35.6635Z" fill="#106EE8"/>
<path d="M61.5769 1V7.05769H77.3942C79.9963 7.05769 82.1058 8.83058 82.1058 11.4327C82.1058 14.0348 79.9963 16.1442 77.3942 16.1442H61.5769V22.2019H74.7019L82.1058 36H88.1635L80.4792 21.7536C84.9235 20.4271 88.1635 16.3083 88.1635 11.4327C88.1635 5.48501 83.3419 1 77.3942 1H61.5769Z" fill="#106EE8"/>
<path d="M1 36H0.663462V36.6288L1.18668 36.28L1 36ZM1 1.33654L1.20519 1.06979L0.663462 0.653075V1.33654H1ZM18.5 14.7981L18.2948 15.0648L18.4981 15.2212L18.7027 15.0667L18.5 14.7981ZM36.3365 1.33654H36.6731V0.66092L36.1338 1.06792L36.3365 1.33654ZM36.3365 36L36.1425 36.2749L36.6731 36.6495V36H36.3365ZM30.6154 31.9615H30.2788V32.1359L30.4213 32.2365L30.6154 31.9615ZM30.6154 13.4519H30.9519V12.7638L30.4088 13.1863L30.6154 13.4519ZM18.5 22.875L18.2861 23.1348L18.494 23.306L18.7066 23.1406L18.5 22.875ZM7.05769 13.4519L7.27163 13.1921L6.72115 12.7388V13.4519H7.05769ZM7.05769 31.9615L7.24437 32.2416L7.39423 32.1416V31.9615H7.05769ZM45.7596 36H45.4231V36.6288L45.9463 36.28L45.7596 36ZM45.7596 1.33654V1H45.4231V1.33654H45.7596ZM51.8173 31.9615L52.004 32.2416L52.1538 32.1416V31.9615H51.8173ZM51.8173 1.33654H52.1538V1H51.8173V1.33654ZM94.8942 35.6635L94.5932 35.513L94.3497 36H94.8942V35.6635ZM102.298 35.6635V36H102.514L102.604 35.8042L102.298 35.6635ZM112.058 14.4615L112.362 14.3168L112.053 13.6679L111.752 14.3208L112.058 14.4615ZM122.154 35.6635L121.85 35.8082L121.941 36H122.154V35.6635ZM129.558 35.6635V36H130.107L129.858 35.5106L129.558 35.6635ZM112.058 1.33654L112.358 1.18369L112.055 0.589849L111.757 1.18603L112.058 1.33654ZM61.5769 7.05769H61.2404V7.39423H61.5769V7.05769ZM61.5769 1V0.663462H61.2404V1H61.5769ZM61.5769 22.2019H61.2404V22.5385H61.5769V22.2019ZM61.5769 16.1442V15.8077H61.2404V16.1442H61.5769ZM88.1635 36V36.3365H88.7274L88.4597 35.8402L88.1635 36ZM82.1058 36L81.8092 36.1591L81.9044 36.3365H82.1058V36ZM74.7019 22.2019L74.9985 22.0428L74.9033 21.8654H74.7019V22.2019ZM80.4792 21.7536L80.3829 21.4311L79.9867 21.5494L80.183 21.9133L80.4792 21.7536ZM1.33654 36V1.33654H0.663462V36H1.33654ZM0.794809 1.60329L18.2948 15.0648L18.7052 14.5313L1.20519 1.06979L0.794809 1.60329ZM18.7027 15.0667L36.5393 1.60516L36.1338 1.06792L18.2973 14.5295L18.7027 15.0667ZM36 1.33654V36H36.6731V1.33654H36ZM36.5306 35.7251L30.8095 31.6866L30.4213 32.2365L36.1425 36.2749L36.5306 35.7251ZM30.9519 31.9615V13.4519H30.2788V31.9615H30.9519ZM30.4088 13.1863L18.2934 22.6094L18.7066 23.1406L30.822 13.7176L30.4088 13.1863ZM18.7139 22.6152L7.27163 13.1921L6.84375 13.7117L18.2861 23.1348L18.7139 22.6152ZM6.72115 13.4519V31.9615H7.39423V13.4519H6.72115ZM6.87101 31.6815L0.813322 35.72L1.18668 36.28L7.24437 32.2416L6.87101 31.6815ZM46.0962 36V1.33654H45.4231V36H46.0962ZM51.6306 31.6815L45.5729 35.72L45.9463 36.28L52.004 32.2416L51.6306 31.6815ZM45.7596 1.67308H51.8173V1H45.7596V1.67308ZM51.4808 1.33654V31.9615H52.1538V1.33654H51.4808ZM94.8942 36H102.298V35.3269H94.8942V36ZM102.604 35.8042L112.363 14.6023L111.752 14.3208L101.992 35.5227L102.604 35.8042ZM111.754 14.6062L121.85 35.8082L122.458 35.5188L112.362 14.3168L111.754 14.6062ZM122.154 36H129.558V35.3269H122.154V36ZM129.858 35.5106L112.358 1.18369L111.758 1.48939L129.258 35.8163L129.858 35.5106ZM111.757 1.18603L94.5932 35.513L95.1952 35.814L112.359 1.48704L111.757 1.18603ZM61.9135 7.05769V1H61.2404V7.05769H61.9135ZM61.9135 22.2019V16.1442H61.2404V22.2019H61.9135ZM88.1635 35.6635H82.1058V36.3365H88.1635V35.6635ZM82.4023 35.8409L74.9985 22.0428L74.4054 22.361L81.8092 36.1591L82.4023 35.8409ZM77.3942 1.33654C83.1702 1.33654 87.8269 5.68472 87.8269 11.4327H88.5C88.5 5.2853 83.5136 0.663462 77.3942 0.663462V1.33654ZM81.7692 11.4327C81.7692 13.8489 79.8105 15.8077 77.3942 15.8077V16.4808C80.1822 16.4808 82.4423 14.2207 82.4423 11.4327H81.7692ZM77.3942 7.39423C79.8442 7.39423 81.7692 9.04848 81.7692 11.4327H82.4423C82.4423 8.61268 80.1485 6.72115 77.3942 6.72115V7.39423ZM61.5769 7.39423H77.3942V6.72115H61.5769V7.39423ZM61.5769 16.4808H77.3942V15.8077H61.5769V16.4808ZM61.5769 1.33654H77.3942V0.663462H61.5769V1.33654ZM74.7019 21.8654H61.5769V22.5385H74.7019V21.8654ZM87.8269 11.4327C87.8269 16.1554 84.6886 20.146 80.3829 21.4311L80.5754 22.076C85.1584 20.7082 88.5 16.4611 88.5 11.4327H87.8269ZM80.183 21.9133L87.8673 36.1598L88.4597 35.8402L80.7754 21.5938L80.183 21.9133Z" fill="#106EE8"/>
</svg>
