<svg width="142" height="52" viewBox="0 0 142 52" fill="none" xmlns="http://www.w3.org/2000/svg">
<rect width="142" height="52" rx="8" fill="#1BF5AF"/>
<path d="M42.7423 32H40.9183L35.4303 23.696V32H33.6063V20.864H35.4303L40.9183 29.152V20.864H42.7423V32ZM48.9615 32.144C48.1295 32.144 47.3775 31.9573 46.7055 31.584C46.0335 31.2 45.5055 30.6667 45.1215 29.984C44.7375 29.2907 44.5455 28.4907 44.5455 27.584C44.5455 26.688 44.7428 25.8933 45.1375 25.2C45.5322 24.5067 46.0708 23.9733 46.7535 23.6C47.4362 23.2267 48.1988 23.04 49.0415 23.04C49.8842 23.04 50.6468 23.2267 51.3295 23.6C52.0122 23.9733 52.5508 24.5067 52.9455 25.2C53.3402 25.8933 53.5375 26.688 53.5375 27.584C53.5375 28.48 53.3348 29.2747 52.9295 29.968C52.5242 30.6613 51.9695 31.2 51.2655 31.584C50.5722 31.9573 49.8042 32.144 48.9615 32.144ZM48.9615 30.56C49.4308 30.56 49.8682 30.448 50.2735 30.224C50.6895 30 51.0255 29.664 51.2815 29.216C51.5375 28.768 51.6655 28.224 51.6655 27.584C51.6655 26.944 51.5428 26.4053 51.2975 25.968C51.0522 25.52 50.7268 25.184 50.3215 24.96C49.9162 24.736 49.4788 24.624 49.0095 24.624C48.5402 24.624 48.1028 24.736 47.6975 24.96C47.3028 25.184 46.9882 25.52 46.7535 25.968C46.5188 26.4053 46.4015 26.944 46.4015 27.584C46.4015 28.5333 46.6415 29.2693 47.1215 29.792C47.6122 30.304 48.2255 30.56 48.9615 30.56ZM57.4686 24.672V29.552C57.4686 29.8827 57.5433 30.1227 57.6926 30.272C57.8526 30.4107 58.1193 30.48 58.4926 30.48H59.6126V32H58.1726C57.3513 32 56.722 31.808 56.2846 31.424C55.8473 31.04 55.6286 30.416 55.6286 29.552V24.672H54.5886V23.184H55.6286V20.992H57.4686V23.184H59.6126V24.672H57.4686ZM62.2218 22.016C61.8911 22.016 61.6138 21.904 61.3898 21.68C61.1658 21.456 61.0538 21.1787 61.0538 20.848C61.0538 20.5173 61.1658 20.24 61.3898 20.016C61.6138 19.792 61.8911 19.68 62.2218 19.68C62.5418 19.68 62.8138 19.792 63.0378 20.016C63.2618 20.24 63.3738 20.5173 63.3738 20.848C63.3738 21.1787 63.2618 21.456 63.0378 21.68C62.8138 21.904 62.5418 22.016 62.2218 22.016ZM63.1178 23.184V32H61.2938V23.184H63.1178ZM69.2085 24.672H67.5765V32H65.7365V24.672H64.6965V23.184H65.7365V22.56C65.7365 21.5467 66.0032 20.8107 66.5365 20.352C67.0805 19.8827 67.9285 19.648 69.0805 19.648V21.168C68.5258 21.168 68.1365 21.2747 67.9125 21.488C67.6885 21.6907 67.5765 22.048 67.5765 22.56V23.184H69.2085V24.672ZM78.761 23.184L73.353 36.144H71.465L73.257 31.856L69.785 23.184H71.817L74.297 29.904L76.873 23.184H78.761ZM94.9658 23.04C95.6591 23.04 96.2778 23.184 96.8218 23.472C97.3764 23.76 97.8084 24.1867 98.1178 24.752C98.4378 25.3173 98.5978 26 98.5978 26.8V32H96.7898V27.072C96.7898 26.2827 96.5924 25.68 96.1978 25.264C95.8031 24.8373 95.2644 24.624 94.5818 24.624C93.8991 24.624 93.3551 24.8373 92.9498 25.264C92.5551 25.68 92.3578 26.2827 92.3578 27.072V32H90.5498V27.072C90.5498 26.2827 90.3524 25.68 89.9578 25.264C89.5631 24.8373 89.0244 24.624 88.3418 24.624C87.6591 24.624 87.1151 24.8373 86.7098 25.264C86.3151 25.68 86.1178 26.2827 86.1178 27.072V32H84.2938V23.184H86.1178V24.192C86.4164 23.8293 86.7951 23.5467 87.2538 23.344C87.7124 23.1413 88.2031 23.04 88.7258 23.04C89.4298 23.04 90.0591 23.1893 90.6138 23.488C91.1684 23.7867 91.5951 24.2187 91.8938 24.784C92.1604 24.2507 92.5764 23.8293 93.1418 23.52C93.7071 23.2 94.3151 23.04 94.9658 23.04ZM108.999 27.376C108.999 27.7067 108.977 28.0053 108.935 28.272H102.199C102.252 28.976 102.513 29.5413 102.983 29.968C103.452 30.3947 104.028 30.608 104.711 30.608C105.692 30.608 106.385 30.1973 106.791 29.376H108.759C108.492 30.1867 108.007 30.8533 107.303 31.376C106.609 31.888 105.745 32.144 104.711 32.144C103.868 32.144 103.111 31.9573 102.439 31.584C101.777 31.2 101.255 30.6667 100.871 29.984C100.497 29.2907 100.311 28.4907 100.311 27.584C100.311 26.6773 100.492 25.8827 100.855 25.2C101.228 24.5067 101.745 23.9733 102.407 23.6C103.079 23.2267 103.847 23.04 104.711 23.04C105.543 23.04 106.284 23.2213 106.935 23.584C107.585 23.9467 108.092 24.4587 108.455 25.12C108.817 25.7707 108.999 26.5227 108.999 27.376ZM107.095 26.8C107.084 26.128 106.844 25.5893 106.375 25.184C105.905 24.7787 105.324 24.576 104.631 24.576C104.001 24.576 103.463 24.7787 103.015 25.184C102.567 25.5787 102.3 26.1173 102.215 26.8H107.095Z" fill="white"/>
</svg>
