<svg width="28" height="28" viewBox="0 0 28 28" fill="none" xmlns="http://www.w3.org/2000/svg">
<path d="M13.9987 2.33398C7.55538 2.33398 2.33203 7.55733 2.33203 14.0007C2.33203 20.444 7.55538 25.6673 13.9987 25.6673C20.442 25.6673 25.6654 20.444 25.6654 14.0007C25.6654 7.55733 20.442 2.33398 13.9987 2.33398Z" fill="#90ECF4"/>
<path fill-rule="evenodd" clip-rule="evenodd" d="M12.9892 11.0835C12.6666 11.6413 11.9529 11.8319 11.3952 11.5092C10.8374 11.1866 10.6469 10.4729 10.9695 9.91517C11.5729 8.87206 12.7036 8.16602 14.0005 8.16602C15.9335 8.16602 17.5005 9.73302 17.5005 11.666C17.5005 12.9467 16.7149 13.9923 15.7505 14.5827C14.9759 15.0569 15.4589 16.3327 13.9975 16.3327C13.3531 16.3327 12.8308 15.8103 12.8308 15.166C12.8308 15.1251 12.8329 15.0846 12.837 15.0447C12.8694 14.4277 13.1445 13.9257 13.4441 13.5606C13.7604 13.1751 14.1764 12.8603 14.4944 12.6713C16.2639 11.6193 14.1057 9.46731 12.9892 11.0835ZM13.9975 17.4993C13.3531 17.4993 12.8308 18.0217 12.8308 18.666C12.8308 19.3103 13.3531 19.8327 13.9975 19.8327C14.6418 19.8327 15.1641 19.3103 15.1641 18.666C15.1641 18.0217 14.6418 17.4993 13.9975 17.4993Z" fill="#106EE8"/>
</svg>
