<svg width="155" height="137" viewBox="0 0 155 137" fill="none" xmlns="http://www.w3.org/2000/svg">
<path d="M14.5312 0.6875H53.2812C61.3037 0.6875 67.8125 7.19629 67.8125 15.2188V53.9688C67.8125 61.9912 61.3037 68.5 53.2812 68.5H29.0625V87.875C29.0625 98.5615 37.751 107.25 48.4375 107.25H50.8594C54.8857 107.25 58.125 110.489 58.125 114.516V129.047C58.125 133.073 54.8857 136.312 50.8594 136.312H48.4375C21.6758 136.312 0 114.637 0 87.875V15.2188C0 7.19629 6.50879 0.6875 14.5312 0.6875ZM101.719 0.6875H140.469C148.491 0.6875 155 7.19629 155 15.2188V53.9688C155 61.9912 148.491 68.5 140.469 68.5H116.25V87.875C116.25 98.5615 124.938 107.25 135.625 107.25H138.047C142.073 107.25 145.312 110.489 145.312 114.516V129.047C145.312 133.073 142.073 136.312 138.047 136.312H135.625C108.863 136.312 87.1875 114.637 87.1875 87.875V15.2188C87.1875 7.19629 93.6963 0.6875 101.719 0.6875Z" fill="#1BF5AF" fill-opacity="0.24"/>
</svg>
