<svg width="40" height="40" viewBox="0 0 40 40" fill="none" xmlns="http://www.w3.org/2000/svg">
<rect width="40" height="40" rx="20" fill="#106EE8"/>
<path d="M18.0406 13.9596C17.6501 13.569 17.0169 13.569 16.6264 13.9596C16.2359 14.3501 16.2359 14.9833 16.6264 15.3738L18.0406 13.9596ZM22.6668 20L23.3739 20.7071C23.7645 20.3166 23.7645 19.6834 23.3739 19.2929L22.6668 20ZM16.6264 24.6262C16.2359 25.0168 16.2359 25.6499 16.6264 26.0404C17.0169 26.431 17.6501 26.431 18.0406 26.0404L16.6264 24.6262ZM16.6264 15.3738L21.9597 20.7071L23.3739 19.2929L18.0406 13.9596L16.6264 15.3738ZM21.9597 19.2929L16.6264 24.6262L18.0406 26.0404L23.3739 20.7071L21.9597 19.2929Z" fill="white"/>
</svg>
