<svg width="145" height="75" viewBox="0 0 145 75" fill="none" xmlns="http://www.w3.org/2000/svg">
<mask id="mask0_2251_5568" style="mask-type:alpha" maskUnits="userSpaceOnUse" x="0" y="0" width="145" height="75">
<rect width="145" height="75" rx="10.8103" fill="#1FADAD"/>
</mask>
<g mask="url(#mask0_2251_5568)">
<rect width="145" height="75" rx="10.8103" fill="#25D0D0"/>
<rect width="145" height="75" rx="10.8103" fill="url(#paint0_linear_2251_5568)"/>
<path d="M25.5772 29.6327V25.6837H32.9547V48H28.5466V29.6327H25.5772ZM38.5355 43.1633C40.4947 41.5306 42.0559 40.1735 43.2191 39.0918C44.3824 37.9898 45.3518 36.8469 46.1273 35.6633C46.9028 34.4796 47.2906 33.3163 47.2906 32.1735C47.2906 31.1327 47.0457 30.3163 46.5559 29.7245C46.0661 29.1327 45.311 28.8367 44.2906 28.8367C43.2702 28.8367 42.4845 29.1837 41.9334 29.8776C41.3824 30.551 41.0967 31.4796 41.0763 32.6633H36.913C36.9947 30.2143 37.7191 28.3571 39.0865 27.0918C40.4743 25.8265 42.2294 25.1939 44.3518 25.1939C46.6783 25.1939 48.464 25.8163 49.7089 27.0612C50.9538 28.2857 51.5763 29.9082 51.5763 31.9286C51.5763 33.5204 51.1477 35.0408 50.2906 36.4898C49.4334 37.9388 48.4538 39.2041 47.3518 40.2857C46.2498 41.3469 44.811 42.6327 43.0355 44.1429H52.0661V47.6939H36.9436V44.5102L38.5355 43.1633ZM54.2769 31.1633C54.2769 29.6122 54.7258 28.398 55.6238 27.5204C56.5422 26.6429 57.7156 26.2041 59.1442 26.2041C60.5728 26.2041 61.736 26.6429 62.634 27.5204C63.5524 28.398 64.0116 29.6122 64.0116 31.1633C64.0116 32.7347 63.5524 33.9592 62.634 34.8367C61.736 35.7143 60.5728 36.1531 59.1442 36.1531C57.7156 36.1531 56.5422 35.7143 55.6238 34.8367C54.7258 33.9592 54.2769 32.7347 54.2769 31.1633ZM73.9299 26.5714L61.8993 48H57.736L69.7361 26.5714H73.9299ZM59.1136 28.7755C57.9912 28.7755 57.4299 29.5714 57.4299 31.1633C57.4299 32.7755 57.9912 33.5816 59.1136 33.5816C59.6646 33.5816 60.0932 33.3878 60.3993 33C60.7054 32.5918 60.8585 31.9796 60.8585 31.1633C60.8585 29.5714 60.2769 28.7755 59.1136 28.7755ZM67.7156 43.3776C67.7156 41.8061 68.1646 40.5918 69.0626 39.7347C69.9809 38.8571 71.1544 38.4184 72.583 38.4184C74.0116 38.4184 75.1646 38.8571 76.0422 39.7347C76.9401 40.5918 77.3891 41.8061 77.3891 43.3776C77.3891 44.949 76.9401 46.1735 76.0422 47.051C75.1646 47.9286 74.0116 48.3673 72.583 48.3673C71.134 48.3673 69.9605 47.9286 69.0626 47.051C68.1646 46.1735 67.7156 44.949 67.7156 43.3776ZM72.5524 40.9898C71.3891 40.9898 70.8075 41.7857 70.8075 43.3776C70.8075 44.9898 71.3891 45.7959 72.5524 45.7959C73.6952 45.7959 74.2667 44.9898 74.2667 43.3776C74.2667 41.7857 73.6952 40.9898 72.5524 40.9898Z" fill="white"/>
<g opacity="0.4">
<path d="M122.089 21.405L120.126 21.2069C120.02 20.5427 119.779 19.9075 119.417 19.3406L122.269 19.6283C122.504 19.6521 122.74 19.5813 122.923 19.4315C123.106 19.2817 123.223 19.0652 123.247 18.8296C123.27 18.594 123.2 18.3586 123.05 18.1752C122.9 17.9918 122.684 17.8754 122.448 17.8517L112.676 16.8657C112.441 16.8419 112.205 16.9127 112.022 17.0625C111.839 17.2123 111.722 17.4288 111.698 17.6644C111.675 17.9 111.746 18.1354 111.895 18.3188C112.045 18.5022 112.262 18.6186 112.497 18.6424L115.606 18.9561C116.193 19.0173 116.75 19.2431 117.213 19.6075C117.676 19.9718 118.027 20.4598 118.225 21.0151L112.318 20.419C112.082 20.3952 111.847 20.466 111.664 20.6158C111.48 20.7656 111.364 20.9821 111.34 21.2177C111.316 21.4533 111.387 21.6887 111.537 21.8721C111.687 22.0555 111.903 22.1719 112.139 22.1956L118.357 22.8231C118.176 23.5502 117.74 24.188 117.128 24.6204C116.516 25.0528 115.769 25.251 115.023 25.1788L111.87 24.8606C111.829 24.8523 111.787 24.8481 111.745 24.848C111.687 24.8329 111.628 24.8269 111.568 24.8301C111.505 24.8446 111.445 24.8689 111.39 24.9019L111.277 24.9533C111.224 24.9924 111.177 25.039 111.138 25.0918C111.104 25.1282 111.073 25.1671 111.045 25.2081C111.032 25.2603 111.026 25.3142 111.029 25.368C110.957 25.4502 110.909 25.5512 110.892 25.6593C110.883 25.7002 110.879 25.7419 110.879 25.7836C110.864 25.8416 110.858 25.9015 110.861 25.9613C110.876 26.0239 110.9 26.0839 110.933 26.139C110.933 26.139 110.926 26.2101 110.985 26.2519L115.687 33.008C115.822 33.2025 116.029 33.3353 116.262 33.3774C116.495 33.4194 116.735 33.3671 116.93 33.232C117.124 33.097 117.257 32.8902 117.299 32.6571C117.341 32.4241 117.289 32.1839 117.154 31.9894L113.627 26.8326L114.8 26.9509C116.021 27.0793 117.247 26.7451 118.235 26.0141C119.222 25.283 119.9 24.2084 120.134 23.0023L121.91 23.1816C122.146 23.2054 122.381 23.1346 122.565 22.9848C122.748 22.835 122.864 22.6185 122.888 22.3829C122.912 22.1473 122.841 21.9119 122.691 21.7285C122.542 21.5451 122.325 21.4287 122.089 21.405Z" fill="white"/>
<mask id="path-5-inside-1_2251_5568" fill="white">
<path d="M102.935 8.93172C102.569 8.48352 102.634 7.82124 103.099 7.47675C106.646 4.84867 110.904 3.33328 115.331 3.13761C120.106 2.92649 124.823 4.26308 128.778 6.94848C132.733 9.63387 135.715 13.5245 137.281 18.0414C138.846 22.5583 138.912 27.46 137.467 32.017C136.022 36.574 133.145 40.5427 129.263 43.3325C125.381 46.1223 120.701 47.5841 115.922 47.5003C111.142 47.4165 106.517 45.7916 102.735 42.8674C99.23 40.1573 96.6228 36.4654 95.2376 32.2736C95.0561 31.7241 95.3843 31.1452 95.9417 30.9898C96.4991 30.8344 97.0744 31.1614 97.2586 31.7099C98.5207 35.4672 100.869 38.7756 104.017 41.2096C107.442 43.8577 111.63 45.3292 115.958 45.4051C120.287 45.4809 124.524 44.1572 128.04 41.6308C131.555 39.1044 134.161 35.5104 135.469 31.3837C136.778 27.257 136.718 22.8181 135.301 18.7277C133.883 14.6373 131.182 11.114 127.601 8.68217C124.019 6.25034 119.748 5.03995 115.423 5.23113C111.448 5.40686 107.622 6.75807 104.426 9.10187C103.959 9.44406 103.301 9.37991 102.935 8.93172Z"/>
</mask>
<path d="M102.935 8.93172C102.569 8.48352 102.634 7.82124 103.099 7.47675C106.646 4.84867 110.904 3.33328 115.331 3.13761C120.106 2.92649 124.823 4.26308 128.778 6.94848C132.733 9.63387 135.715 13.5245 137.281 18.0414C138.846 22.5583 138.912 27.46 137.467 32.017C136.022 36.574 133.145 40.5427 129.263 43.3325C125.381 46.1223 120.701 47.5841 115.922 47.5003C111.142 47.4165 106.517 45.7916 102.735 42.8674C99.23 40.1573 96.6228 36.4654 95.2376 32.2736C95.0561 31.7241 95.3843 31.1452 95.9417 30.9898C96.4991 30.8344 97.0744 31.1614 97.2586 31.7099C98.5207 35.4672 100.869 38.7756 104.017 41.2096C107.442 43.8577 111.63 45.3292 115.958 45.4051C120.287 45.4809 124.524 44.1572 128.04 41.6308C131.555 39.1044 134.161 35.5104 135.469 31.3837C136.778 27.257 136.718 22.8181 135.301 18.7277C133.883 14.6373 131.182 11.114 127.601 8.68217C124.019 6.25034 119.748 5.03995 115.423 5.23113C111.448 5.40686 107.622 6.75807 104.426 9.10187C103.959 9.44406 103.301 9.37991 102.935 8.93172Z" fill="white" stroke="white" stroke-width="4.43878" stroke-linejoin="round" mask="url(#path-5-inside-1_2251_5568)"/>
<path d="M99.0265 11.3837C98.9755 11.9944 99.4293 12.5309 100.04 12.5818L109.993 13.4124C110.603 13.4634 111.14 13.0096 111.191 12.3989C111.242 11.7881 110.788 11.2517 110.177 11.2007L101.33 10.4624L102.069 1.61563C102.12 1.00489 101.666 0.46846 101.055 0.41749C100.444 0.366519 99.908 0.820305 99.8571 1.43105L99.0265 11.3837ZM103.02 7.57943L99.4156 10.6288L100.849 12.3232L104.454 9.27385L103.02 7.57943Z" fill="white"/>
</g>
</g>
<defs>
<linearGradient id="paint0_linear_2251_5568" x1="-6.12809" y1="-5.2441" x2="130.31" y2="102.514" gradientUnits="userSpaceOnUse">
<stop stop-color="#09D795"/>
<stop offset="1" stop-color="#1BF5AF"/>
</linearGradient>
</defs>
</svg>
